<svg width="0" height="0" style="position:absolute"><symbol viewBox="0 0 14 9" id="svg-arrow-down"><title>arrow-r</title><path d="M1 1.657l5.657 5.657 5.657-5.657" stroke-width="1.5" fill="none" fill-rule="evenodd" stroke-linecap="round" stroke-linejoin="round"/></symbol><symbol viewBox="0 0 38 42" id="svg-category-communications"><title>Shape</title><path d="M16.476 23.003a5.325 5.325 0 0 1-2.55-5.39c.085-.56.262-1.107.52-1.612a5.318 5.318 0 0 1 4.6-2.897h.276a5.318 5.318 0 0 1 4.6 2.897c.26.506.437 1.053.523 1.614a5.352 5.352 0 0 1-.464 3.117 5.336 5.336 0 0 1-2.068 2.263c.01.053.013.107.015.163V40.21a1.135 1.135 0 0 1-.05.316c-.078.23-.24.428-.45.55-.084.05-.177.082-.27.115-.154.055-.31.1-.47.14-.65.156-1.33.2-1.996.152a5.27 5.27 0 0 1-1.56-.328l-.048-.02a.396.396 0 0 1-.048-.02.806.806 0 0 1-.156-.092c-.003-.003-.005-.005-.008-.006l-.004-.004h-.002a.902.902 0 0 1-.178-.172 1.026 1.026 0 0 1-.195-.39 1.29 1.29 0 0 1-.028-.24V23.156a1.28 1.28 0 0 1 .014-.153zm3.45.69a5.257 5.257 0 0 1-1.464.003v15.75c.476.076.966.068 1.44 0l.025-.004v-15.75zM19.424.24A18.192 18.192 0 0 1 25.9 1.51a18.356 18.356 0 0 1 4.934 2.913 18.472 18.472 0 0 1 3.78 4.26 18.303 18.303 0 0 1 2.19 4.858c.533 1.875.76 3.83.68 5.777a18.255 18.255 0 0 1-1.09 5.512 18.37 18.37 0 0 1-6.592 8.643c-.233.166-.47.326-.71.482-.178.114-.35.237-.56.282a1.01 1.01 0 0 1-1.026-.398 1.014 1.014 0 0 1-.182-.66c.02-.233.12-.456.284-.622.073-.074.097-.086.18-.146.146-.09.29-.184.433-.278a16.428 16.428 0 0 0 3.653-3.332 16.22 16.22 0 0 0 3.626-10.25 16.48 16.48 0 0 0-.513-4.075 16.238 16.238 0 0 0-1.952-4.548A16.438 16.438 0 0 0 29.1 5.6a16.297 16.297 0 0 0-5.45-2.742 16.42 16.42 0 0 0-6.54-.488c-2.123.27-4.185.964-6.04 2.03a16.438 16.438 0 0 0-4.593 3.93 16.33 16.33 0 0 0-2.746 4.993 16.377 16.377 0 0 0-.227 9.73 16.266 16.266 0 0 0 2.284 4.8 16.46 16.46 0 0 0 3.78 3.872 16.282 16.282 0 0 0 4.288 2.25l.107.044c.034.02.07.036.102.057a1.008 1.008 0 0 1 .414.544 1.008 1.008 0 0 1-.497 1.186c-.173.09-.37.126-.564.105-.103-.01-.128-.022-.227-.05a19.216 19.216 0 0 1-1.956-.81 18.337 18.337 0 0 1-3.128-1.92 18.464 18.464 0 0 1-4.804-5.464A18.266 18.266 0 0 1 .947 16.913c.167-1.886.63-3.743 1.368-5.487A18.366 18.366 0 0 1 5.783 6.08a18.437 18.437 0 0 1 5.667-4.13A18.253 18.253 0 0 1 16.4.45c.768-.117 1.54-.18 2.315-.205.236-.004.472-.006.708-.004zm5.932 33.496a1 1 0 0 1 .354 1.932c-.16.06-.317.127-.48.172a1.01 1.01 0 0 1-1.05-.354 1.024 1.024 0 0 1-.156-.29 1.01 1.01 0 0 1 .283-1.07c.092-.08.198-.145.312-.188l.194-.07c.09-.034.18-.073.275-.1a.997.997 0 0 1 .266-.033zM19.34 6.716a11.744 11.744 0 0 1 4.186.82 11.89 11.89 0 0 1 6.51 6.277c.45 1.028.752 2.12.893 3.233a11.814 11.814 0 0 1-2.292 8.633 2.36 2.36 0 0 1-.13.16.975.975 0 0 1-.556.306 1.01 1.01 0 0 1-1.142-.715 1.008 1.008 0 0 1 .033-.635c.03-.077.043-.093.083-.165.112-.16.234-.315.346-.476a9.775 9.775 0 0 0 1.717-4.763 9.884 9.884 0 0 0-.648-4.445 9.895 9.895 0 0 0-2.284-3.433 9.895 9.895 0 0 0-3.266-2.117 9.838 9.838 0 0 0-3.605-.682 9.83 9.83 0 0 0-3.493.64 9.83 9.83 0 0 0-2.762 1.607 9.92 9.92 0 0 0-2.56 3.22 9.735 9.735 0 0 0-.822 2.388 9.884 9.884 0 0 0 .657 6.002 9.913 9.913 0 0 0 4.136 4.543l.078.05c.065.05.084.06.14.12a1.01 1.01 0 0 1 .27.85 1.01 1.01 0 0 1-1.05.843 1.026 1.026 0 0 1-.358-.09l-.082-.045c-.163-.095-.163-.095-.325-.192a11.905 11.905 0 0 1-4.86-5.8 11.908 11.908 0 0 1-.47-7.115c.22-.892.54-1.757.96-2.574a11.92 11.92 0 0 1 2.273-3.08 11.91 11.91 0 0 1 3.266-2.262 11.75 11.75 0 0 1 4.696-1.103c.153-.004.305-.005.458-.004zm6.008 19.756a1.008 1.008 0 0 1 .93 1.345.996.996 0 0 1-.3.424c-.097.083-.21.15-.316.22-.18.12-.354.243-.568.288a1.003 1.003 0 0 1-.98-.342 1.01 1.01 0 0 1-.088-1.148c.065-.108.15-.203.25-.28.092-.07.194-.127.29-.19.09-.06.176-.123.267-.178a1.03 1.03 0 0 1 .515-.138zm-6.25-11.37a3.313 3.313 0 0 0-1.424.362c-.618.318-1.13.83-1.447 1.45-.15.29-.254.6-.31.92-.066.362-.07.734-.015 1.096a3.35 3.35 0 0 0 1.992 2.554 3.314 3.314 0 0 0 4.285-1.622c.142-.294.24-.61.29-.932a3.303 3.303 0 0 0-.325-2.017 3.327 3.327 0 0 0-2.872-1.81h-.174zm.097 1.506c.076.002.15.02.218.054a.507.507 0 0 1 .18.736.503.503 0 0 1-.32.202c-.07.012-.142.007-.213.017a.83.83 0 0 0-.688.743c-.004.05-.003.1-.01.15a.512.512 0 0 1-.152.28.505.505 0 0 1-.723-.045.498.498 0 0 1-.094-.168.78.78 0 0 1-.02-.293 1.83 1.83 0 0 1 1.187-1.566c.188-.068.382-.103.58-.11h.055z" fill-rule="evenodd"/></symbol><symbol viewBox="0 0 23 36" fill-rule="evenodd" clip-rule="evenodd" stroke-linejoin="round" stroke-miterlimit="1.414" id="svg-category-default"><path d="M13.527.006c.037.007.074.01.11.02a1.006 1.006 0 0 1 .77.863c.005.035.005.073.007.11v3.895a20.952 20.952 0 0 1 1.16.212c2.05.444 4.048 1.176 5.826 2.298l.1.063c.03.022.06.042.09.066A1.008 1.008 0 0 1 21.9 8.64c-.013.035-.03.068-.043.102l-2.237 4.64c-.018.03-.034.064-.053.095a1.008 1.008 0 0 1-1.25.386c-.033-.014-.065-.033-.097-.05a20.147 20.147 0 0 0-3.878-1.71c-.445-.14-.896-.265-1.352-.366a10.24 10.24 0 0 0-1.18-.196 5.33 5.33 0 0 0-.912-.018c-.3.022-.617.072-.89.21-.12.06-.248.143-.3.273a.657.657 0 0 0-.025.332.65.65 0 0 0 .085.236c.06.1.14.183.226.258.262.228.584.386.9.524.47.204.958.36 1.446.51.738.222 1.48.428 2.218.647.3.09.598.183.894.28.252.085.504.172.753.265 1.486.55 2.948 1.3 4.037 2.477a6.506 6.506 0 0 1 1.484 2.63c.198.687.288 1.402.296 2.116.012 1.067-.168 2.137-.585 3.122a7.14 7.14 0 0 1-1.57 2.3 8.055 8.055 0 0 1-.65.575c-1.364 1.075-3.027 1.69-4.72 2.006l-.085.015v4.175l-.006.112c-.007.037-.012.074-.02.11a1.006 1.006 0 0 1-.863.77c-.037.005-.075.005-.112.007H9.01c-.038-.002-.075-.002-.112-.006a1.007 1.007 0 0 1-.882-.882c-.004-.038-.004-.075-.006-.113v-4.337a19.856 19.856 0 0 1-.922-.213c-1.897-.498-3.72-1.273-5.363-2.35a16.31 16.31 0 0 1-1.255-.918l-.104-.086c-.028-.024-.057-.048-.083-.075a1.002 1.002 0 0 1-.254-.936c.024-.098.038-.12.078-.21l2.302-4.574c.018-.033.035-.067.056-.1a1.007 1.007 0 0 1 1.4-.278c.03.022.06.046.09.07.106.09.213.18.322.27 1.128.903 2.4 1.62 3.743 2.153.893.353 1.823.632 2.774.765.543.076 1.1.102 1.644.03.295-.04.596-.107.862-.244a.965.965 0 0 0 .362-.296.776.776 0 0 0 .12-.42.802.802 0 0 0-.064-.36.977.977 0 0 0-.26-.325c-.258-.228-.578-.386-.893-.522-.548-.235-1.123-.405-1.696-.572-.652-.185-1.306-.36-1.958-.544a39.675 39.675 0 0 1-.892-.266 24.52 24.52 0 0 1-.752-.25c-1.53-.54-3.05-1.284-4.156-2.5a6.26 6.26 0 0 1-1.35-2.358 7.43 7.43 0 0 1-.317-1.854 7.955 7.955 0 0 1 .243-2.425 7.093 7.093 0 0 1 1.625-2.967C4.13 6.89 5.16 6.21 6.266 5.73c.565-.246 1.15-.436 1.744-.592V1c.002-.037.002-.075.006-.112a1.006 1.006 0 0 1 .882-.882C8.935.002 8.972.002 9.01 0h4.405l.112.006zm-2.068 9.51c1.008.038 2.005.25 2.973.527 1.308.375 2.574.886 3.79 1.497l.054.028 1.384-2.87c-.15-.083-.303-.163-.456-.24-1.844-.917-3.856-1.465-5.9-1.69l-.11-.02-.108-.03a1.008 1.008 0 0 1-.646-.722c-.022-.098-.02-.124-.025-.223V2H10.01v3.94c-.003.038-.003.076-.007.114a1.004 1.004 0 0 1-.58.797c-.095.043-.12.045-.22.07-.176.035-.175.035-.35.073-.356.08-.708.174-1.054.29-1.086.362-2.126.925-2.924 1.756a5.107 5.107 0 0 0-1.255 2.223 5.953 5.953 0 0 0-.177 1.818 5.24 5.24 0 0 0 .31 1.597c.176.467.434.9.76 1.276.546.632 1.257 1.097 2 1.463 1.116.548 2.32.895 3.514 1.223.465.128.93.254 1.394.386.226.065.45.13.673.2.672.214 1.344.45 1.958.802.466.266.898.604 1.214 1.04.187.26.33.55.416.856a2.915 2.915 0 0 1-.116 1.895 2.678 2.678 0 0 1-.466.73c-.485.543-1.164.86-1.862 1.023-.392.09-.793.137-1.195.15-.8.03-1.6-.07-2.38-.238a15.282 15.282 0 0 1-2.525-.793 17.12 17.12 0 0 1-3.463-1.9l-.028-.02-1.38 2.74c.115.086.233.17.352.25a16.034 16.034 0 0 0 4.843 2.193c.562.15 1.132.268 1.707.36l.107.023c.105.035.202.072.295.135.21.142.36.365.416.614.02.094.018.12.024.215v4.173h2.405v-4.04c.002-.036.002-.074.006-.11a1.005 1.005 0 0 1 .764-.86c.037-.01.074-.015.11-.022a12.66 12.66 0 0 0 1.383-.236c.23-.053.458-.113.683-.182 1.318-.398 2.597-1.08 3.484-2.157a5.063 5.063 0 0 0 .806-1.373c.172-.44.28-.9.334-1.368a6.592 6.592 0 0 0-.04-1.78 4.703 4.703 0 0 0-.823-2.034c-.48-.66-1.133-1.168-1.836-1.57-1.032-.59-2.168-.968-3.3-1.312-.65-.193-1.304-.376-1.955-.567-.855-.257-1.722-.523-2.51-.95-.523-.284-1.014-.65-1.358-1.143a2.664 2.664 0 0 1-.36-.726c-.215-.676-.163-1.45.19-2.07.18-.317.436-.588.733-.798.706-.5 1.59-.65 2.437-.664.1 0 .198 0 .297.003z" fill-rule="nonzero"/></symbol><symbol viewBox="0 0 28 42" id="svg-category-design"><title>:: design</title><path d="M13.99 4.834l.083.002h.01a1.132 1.132 0 0 1 .333.09l.012.005a1.008 1.008 0 0 1 .51.572 17.067 17.067 0 0 0 .66 1.612c.594 1.242 1.323 2.414 2.1 3.55.9 1.314 1.866 2.58 2.81 3.864.2.273.4.548.597.823.857 1.205 1.686 2.436 2.347 3.76.513 1.028.92 2.114 1.117 3.247.062.36.102.72.118 1.084.017.373.01.748-.004 1.12a15.37 15.37 0 0 1-.335 2.72 11.784 11.784 0 0 1-1.09 3.018 9.523 9.523 0 0 1-2.4 2.935c-.128.104-.26.204-.392.3-.08.125-.163.248-.242.374a13.957 13.957 0 0 0-.944 1.796 12.622 12.622 0 0 0-.865 2.916 13.346 13.346 0 0 0-.184 2.084c0 .11 0 .223-.002.335-.005.057-.005.056-.013.112a1.06 1.06 0 0 1-.168.412 1.007 1.007 0 0 1-1.632.002 1.04 1.04 0 0 1-.183-.522c-.004-.12-.002-.242 0-.364.007-.457.03-.913.075-1.368a14.57 14.57 0 0 1 1.1-4.312c-.21.06-.422.113-.635.16-.91.202-1.836.285-2.765.29-.307.002-.613-.01-.918-.03a12.006 12.006 0 0 1-2.506-.423l.07.168c.507 1.23.842 2.53 1 3.85.06.502.094 1.006.105 1.51l.004.31c0 .127.003.25-.026.375a.996.996 0 0 1-.443.624 1.01 1.01 0 0 1-1.347-.27 1.045 1.045 0 0 1-.182-.523c-.005-.2-.003-.403-.008-.605a13.826 13.826 0 0 0-.2-1.937 12.646 12.646 0 0 0-.94-3.01 13.92 13.92 0 0 0-.978-1.78c-.04-.06-.08-.12-.118-.18a9.787 9.787 0 0 1-.38-.29c-1.17-.947-2.08-2.178-2.7-3.545-.492-1.087-.804-2.25-.974-3.432-.08-.56-.13-1.128-.15-1.695a12.63 12.63 0 0 1 .003-1.276c.036-.57.13-1.135.273-1.687.275-1.07.722-2.086 1.247-3.054.713-1.312 1.57-2.537 2.446-3.743.604-.827 1.22-1.648 1.826-2.474 1.116-1.53 2.21-3.088 3.07-4.78a16.855 16.855 0 0 0 .768-1.743c.027-.07.06-.15.083-.227a.483.483 0 0 1 .01-.036v-.002a.692.692 0 0 1 .035-.097v-.002a1.032 1.032 0 0 1 .1-.182c.082-.12.19-.218.313-.29V4.97h.003a.956.956 0 0 1 .7 1.78.956.956 0 0 1-.56-1.85.952.952 0 0 1 .18-.05c.035-.008.072-.013.108-.017.016 0 .028 0 .04-.002h.033zm-1.497 31.343a.51.51 0 0 1 .443.325c.042.126.078.255.115.383a14.75 14.75 0 0 1 .54 3.758c.002.124.005.25 0 .374a.522.522 0 0 1-.117.292.504.504 0 0 1-.746.02.516.516 0 0 1-.132-.287c-.008-.092-.003-.185-.003-.277a14.046 14.046 0 0 0-.294-2.758 12.644 12.644 0 0 0-.18-.74c-.042-.158-.093-.315-.137-.473a.555.555 0 0 1 .006-.26.504.504 0 0 1 .45-.358h.057zm2.502-14.766a2.413 2.413 0 0 1-1.004 4.606 2.413 2.413 0 0 1-.995-4.608V10.176l-.085.14a48.46 48.46 0 0 1-1.985 2.917c-.672.92-1.356 1.832-2.03 2.752-.822 1.135-1.634 2.286-2.304 3.52-.486.894-.902 1.84-1.125 2.837-.08.353-.133.712-.156 1.074-.024.357-.016.716-.003 1.073.025.668.094 1.337.216 1.995.16.855.41 1.696.78 2.484a7.67 7.67 0 0 0 1.932 2.58c.258.223.533.426.82.608 1.506.956 3.31 1.31 5.075 1.292a10.5 10.5 0 0 0 2.65-.352A7.7 7.7 0 0 0 19.6 31.68a7.04 7.04 0 0 0 .813-.77c.185-.203.358-.418.52-.642.98-1.37 1.482-3.025 1.67-4.685.053-.457.082-.917.09-1.378a8.604 8.604 0 0 0-.03-1.028c-.048-.49-.153-.97-.296-1.44-.28-.918-.703-1.787-1.18-2.616-.627-1.09-1.354-2.12-2.093-3.14-.603-.825-1.217-1.644-1.823-2.47-.727-.997-1.442-2.003-2.096-3.05-.06-.095-.117-.19-.175-.286V21.41zM2.975 3c-.19.415-.613.703-1.103.703A1.21 1.21 0 0 1 .66 2.5 1.21 1.21 0 0 1 1.87 1.297c.49 0 .912.288 1.103.703h9.476a1.617 1.617 0 0 1 3.1 0h9.475c.19-.415.613-.703 1.103-.703.67 0 1.213.54 1.213 1.203a1.21 1.21 0 0 1-1.212 1.203c-.49 0-.912-.288-1.103-.703h-9.5a1.62 1.62 0 0 1-3.05 0h-9.5z" fill-rule="evenodd"/></symbol><symbol viewBox="0 0 42 25" id="svg-category-donation"><title>:: donations</title><path d="M40.997 24.572H1.003c-.04-.003-.08-.003-.12-.008a1.008 1.008 0 0 1-.873-.872c-.005-.04-.005-.08-.008-.12V1.605c.003-.04.003-.08.007-.12A1.01 1.01 0 0 1 .883.612c.04-.006.08-.006.12-.008h39.994l.12.007c.04.007.08.012.12.022a1.01 1.01 0 0 1 .732.732c.025.103.02.13.028.238v21.967c-.003.04-.003.08-.007.12a1.008 1.008 0 0 1-.873.872c-.04.005-.08.005-.12.008zm-1-10.13V2.605H10.144a9.076 9.076 0 0 1-.646 2.234 9.233 9.233 0 0 1-2.44 3.313 9.192 9.192 0 0 1-3.15 1.774 9.2 9.2 0 0 1-1.905.402V22.57h29.864a9.1 9.1 0 0 1 .543-2.263 9.224 9.224 0 0 1 5.43-5.365 9.168 9.168 0 0 1 2.157-.503zm0 2.016a7.23 7.23 0 0 0-1.714.46 7.224 7.224 0 0 0-3.972 4.02 7.148 7.148 0 0 0-.428 1.634h6.115v-6.114zM24.305 6.043a4.064 4.064 0 0 1 1.214.276c.313.124.61.288.88.488a3.703 3.703 0 0 1 1.132 1.368c.55 1.122.568 2.436.318 3.64a9.336 9.336 0 0 1-.782 2.23c-.173.348-.358.69-.575 1.013-.512.762-1.15 1.438-1.825 2.056-.966.882-2.028 1.654-3.13 2.358l-.057.034c-.06.03-.12.06-.183.08a1 1 0 0 1-.778-.08c-.122-.07-.12-.073-.245-.153-.462-.3-.916-.615-1.36-.942l-.054-.04a1.06 1.06 0 0 1-.278-.384 1.013 1.013 0 0 1-.032-.67c.113-.376.45-.658.84-.704a1.015 1.015 0 0 1 .653.15c.123.083.12.086.24.174.155.112.208.148.363.257.177.123.176.122.354.243l.338-.23c.805-.568 1.585-1.175 2.292-1.862.46-.45.898-.932 1.25-1.473.128-.196.237-.402.344-.61.21-.414.39-.844.523-1.288.126-.413.214-.84.245-1.27.032-.44.007-.89-.124-1.312a1.97 1.97 0 0 0-.465-.808c-.396-.4-.983-.583-1.538-.544a2.15 2.15 0 0 0-.778.21 2.568 2.568 0 0 0-.954.835c-.107.15-.193.31-.285.47l-.038.056a1.05 1.05 0 0 1-.296.27c-.334.2-.765.186-1.085-.036a1.08 1.08 0 0 1-.278-.29c-.053-.094-.103-.188-.158-.28-.3-.483-.717-.897-1.258-1.103-.712-.27-1.593-.14-2.14.412-.177.18-.31.4-.403.635-.185.468-.22.987-.185 1.485.068.937.394 1.836.824 2.664l.03.062c.02.056.028.07.045.128.043.154.048.318.016.474-.085.41-.43.73-.843.787a1.003 1.003 0 0 1-.953-.414c-.052-.074-.092-.155-.133-.235a11.674 11.674 0 0 1-.18-.373 9.31 9.31 0 0 1-.638-1.858 7.937 7.937 0 0 1-.11-.61c-.17-1.202-.046-2.497.62-3.54.16-.25.352-.484.57-.69a3.95 3.95 0 0 1 2.325-1.044 4.118 4.118 0 0 1 2.866.794c.198.145.38.307.554.48a4.514 4.514 0 0 1 .77-.63 4.26 4.26 0 0 1 1.25-.54c.308-.078.62-.114.937-.123.117 0 .232.004.348.01zm-6.867 8.78c.135.002.27.03.392.082.38.164.64.557.628.972a1.006 1.006 0 0 1-.573.875 1.003 1.003 0 0 1-.81.02 1.045 1.045 0 0 1-.64-.938c0-.12.02-.24.06-.35a1.02 1.02 0 0 1 .484-.55 1.003 1.003 0 0 1 .458-.11zM8.114 2.606h-6.11v5.71c.52-.07 1.03-.192 1.526-.372a7.227 7.227 0 0 0 4.065-3.746 7.13 7.13 0 0 0 .52-1.592z" fill-rule="evenodd"/></symbol><symbol viewBox="0 0 44 32" id="svg-category-engineering"><title>:: engeneering</title><path d="M28.54.354c.11.02.212.04.312.09a1.01 1.01 0 0 1 .534 1.18c-.01.034-.024.067-.036.1l-12.095 29.61-.046.097a1.01 1.01 0 0 1-.57.475 1.007 1.007 0 0 1-1.243-.588 1.006 1.006 0 0 1-.053-.532c.016-.096.028-.118.06-.208L27.5.97c.04-.088.047-.112.102-.19a.998.998 0 0 1 .83-.433l.11.007zm.222 26.425c.133 0 .265.03.387.083a1.01 1.01 0 0 1 .454 1.43c-.066.106-.15.2-.25.277-.13.102-.265.214-.41.303a1.008 1.008 0 0 1-1.49-.586 1 1 0 0 1 .348-1.05c.136-.107.272-.218.42-.31.136-.083.29-.133.45-.146.03 0 .06-.002.09 0zM13.342 5.27c.03.003.06.005.09.01.117.02.23.06.335.12a1.01 1.01 0 0 1 .426 1.246c-.046.11-.11.213-.192.3-.054.06-.07.07-.133.12l-11.16 8.37v1.18l12.177 9.133.07.058a.997.997 0 0 1 .323.624 1.01 1.01 0 0 1-.493.985 1 1 0 0 1-.947.028c-.072-.036-.087-.05-.153-.094L.708 17.62v-3.182l11.96-8.97c.065-.044.08-.058.152-.094.107-.053.224-.087.343-.1.03-.003.06-.003.09-.005.03 0 .06 0 .09.002zm17.523-.477c.078.01.1.012.175.034.118.034.22.09.32.16l12.598 9.448v3.18l-12.184 9.14c-.024.016-.048.034-.074.05a1.002 1.002 0 0 1-.69.135 1.01 1.01 0 0 1-.83-1.105c.026-.21.118-.407.26-.56.055-.06.073-.07.134-.12l11.384-8.54v-1.18L30.16 6.588c-.023-.018-.047-.036-.07-.056a1.016 1.016 0 0 1-.323-.624 1.01 1.01 0 0 1 .493-.985c.104-.06.218-.1.336-.12.08-.014.1-.01.18-.014.03 0 .06.003.09.005zm-14.6-1.76c.13.003.258.03.38.082.394.17.64.59.596 1.018a1.007 1.007 0 0 1-.336.652c-.204.177-.428.332-.648.49a1.018 1.018 0 0 1-.34.154 1.01 1.01 0 0 1-1.202-.714 1.004 1.004 0 0 1 .355-1.048c.21-.16.415-.332.638-.476a1.01 1.01 0 0 1 .556-.157z" fill-rule="evenodd"/></symbol><symbol viewBox="0 0 29 37" fill-rule="evenodd" clip-rule="evenodd" stroke-linejoin="round" stroke-miterlimit="1.414" id="svg-category-food---beverage"><path d="M13.006 12.048c.28.017.557.065.825.156a3.01 3.01 0 0 1 1.783 1.638c2.89 6.91 5.565 13.91 8.347 20.863.01.03.022.058.03.088a1.002 1.002 0 0 1-.025.64 1.01 1.01 0 0 1-1.217.603l-.088-.03L1.877 27.69a3.072 3.072 0 0 1-.993-.655 3.002 3.002 0 0 1-.072-4.177c3.26-3.364 6.626-6.628 9.94-9.942a2.99 2.99 0 0 1 2.253-.87zM21.932.018c.154.01.304.035.45.085.402.137.74.43.933.807.082.16.132.33.162.51.373 3.068.565 6.157.903 9.23.025.18.062.355.118.526.162.49.462.92.855 1.25.08.068.16.136.24.206l.223.21a7.358 7.358 0 0 1 2.013 3.538 7.58 7.58 0 0 1 .202 1.607c.038 5.247.066 10.495 0 15.74-.01.263-.057.52-.15.765a2.3 2.3 0 0 1-2.015 1.457 1.008 1.008 0 0 1-.654-.155 1.01 1.01 0 0 1-.447-1.005 1.01 1.01 0 0 1 .335-.597.998.998 0 0 1 .523-.233c.062-.008.128-.002.19-.015a.284.284 0 0 0 .218-.267c.065-5.245.107-10.493-.003-15.737a5.344 5.344 0 0 0-1.66-3.718c-.12-.11-.247-.216-.37-.32-.09-.08-.09-.08-.175-.16a4.753 4.753 0 0 1-1.442-2.96l-.855-8.767h-2.05l-.784 8.044c-.055.495-.19.977-.348 1.45-.162.484-.35.963-.574 1.423l-.033.065c-.02.034-.038.068-.06.1a1.006 1.006 0 0 1-1.522.172 1.01 1.01 0 0 1-.304-.844c.012-.102.024-.127.054-.225.058-.13.123-.26.182-.39.145-.332.274-.67.385-1.015.09-.278.172-.56.22-.85L16.7 9.9c.314-2.802.548-5.61.822-8.415l.008-.066c.03-.18.08-.35.162-.51.192-.377.53-.67.93-.807.148-.05.3-.075.453-.086a59.157 59.157 0 0 1 2.857 0zM11.195 19.552c-2.327 2.32-4.716 4.58-7.052 6.89l7.31 2.925a1.977 1.977 0 0 1 .44-1.085c.16-.196.356-.362.577-.485.256-.142.538-.222.83-.247.064-.003.127-.004.19-.003.292.01.577.076.84.206a2.005 2.005 0 0 1 .928.95 2.02 2.02 0 0 1-.25 2.087l6.228 2.49c-.518-1.295-1.025-2.598-1.526-3.902a1.53 1.53 0 0 1-.697.572 1.526 1.526 0 0 1-1.14 0 1.518 1.518 0 0 1-.605-2.36c.113-.14.25-.258.405-.35.214-.126.45-.19.697-.207.074-.002.073-.002.146 0 .107.007.212.024.315.05-.925-2.42-1.85-4.84-2.824-7.24a2.686 2.686 0 0 1-1.014.99c-.25.14-.52.238-.8.292-.69.133-1.42-.01-2.007-.396a2.734 2.734 0 0 1-.99-1.177zm13.357 9.963a.507.507 0 0 1 .48.486c.004.347.03.7-.004 1.047a.49.49 0 0 1-.193.34.505.505 0 0 1-.75-.17.513.513 0 0 1-.053-.213c-.005-.348-.03-.7.003-1.047a.507.507 0 0 1 .517-.444zm-10.562.867l.024-.016a1.005 1.005 0 0 0-.04-1.67 1.017 1.017 0 0 0-.555-.15 1.03 1.03 0 0 0-.42.102 1.008 1.008 0 0 0-.3.226c-.22.244-.302.585-.23.9l1.52.607zm4.428-2.35a.527.527 0 0 0-.236.07.52.52 0 0 0-.084.826.517.517 0 0 0 .8-.144.522.522 0 0 0-.194-.684.53.53 0 0 0-.236-.07h-.05zm6.18-10.513a.503.503 0 0 1 .43.45c.16 3.512.003 7.03.003 10.546a.517.517 0 0 1-.153.36.504.504 0 0 1-.775-.104.563.563 0 0 1-.07-.212c-.156-3.51 0-7.03 0-10.544.002-.06.01-.12.03-.176a.505.505 0 0 1 .537-.32zM9.984 23.047c.293.01.58.076.842.206a2.016 2.016 0 0 1 .932.955c.26.562.244 1.23-.044 1.78a2.014 2.014 0 0 1-1.73 1.072 2 2 0 0 1-1.777-.986 2.005 2.005 0 0 1 1.777-3.027zm-.072 1a1.01 1.01 0 0 0-.856 1.498 1.01 1.01 0 0 0 1.436.35c.352-.232.524-.672.424-1.082a1.005 1.005 0 0 0-1.003-.767zm4.102-8.892c-.08-.18-.163-.36-.245-.54a1.013 1.013 0 0 0-.762-.56 1.03 1.03 0 0 0-.82.26c-3.363 3.26-6.784 6.47-9.935 9.937-.08.094-.146.2-.19.315-.128.352-.045.757.213 1.03.102.108.225.187.362.244l.467.188c3.48-3.773 7.264-7.257 10.91-10.873zm.455 1.028c-.81.87-1.637 1.724-2.474 2.57.005.03.01.06.018.09a1.722 1.722 0 0 0 .834 1.117 1.73 1.73 0 0 0 1.197.175 1.713 1.713 0 0 0 .81-.43c.38-.36.572-.885.522-1.404-.13-.31-.26-.62-.393-.93l-.038-.043c-.035-.038-.072-.073-.104-.113a.863.863 0 0 1-.048-.075.552.552 0 0 1-.055-.2.54.54 0 0 1 .008-.12 87.33 87.33 0 0 0-.276-.637z"/></symbol><symbol viewBox="0 0 29 37" fill-rule="evenodd" clip-rule="evenodd" stroke-linejoin="round" stroke-miterlimit="1.414" id="svg-category-food-and-beverage"><path d="M13.006 12.048c.28.017.557.065.825.156a3.01 3.01 0 0 1 1.783 1.638c2.89 6.91 5.565 13.91 8.347 20.863.01.03.022.058.03.088a1.002 1.002 0 0 1-.025.64 1.01 1.01 0 0 1-1.217.603l-.088-.03L1.877 27.69a3.072 3.072 0 0 1-.993-.655 3.002 3.002 0 0 1-.072-4.177c3.26-3.364 6.626-6.628 9.94-9.942a2.99 2.99 0 0 1 2.253-.87zM21.932.018c.154.01.304.035.45.085.402.137.74.43.933.807.082.16.132.33.162.51.373 3.068.565 6.157.903 9.23.025.18.062.355.118.526.162.49.462.92.855 1.25.08.068.16.136.24.206l.223.21a7.358 7.358 0 0 1 2.013 3.538 7.58 7.58 0 0 1 .202 1.607c.038 5.247.066 10.495 0 15.74-.01.263-.057.52-.15.765a2.3 2.3 0 0 1-2.015 1.457 1.008 1.008 0 0 1-.654-.155 1.01 1.01 0 0 1-.447-1.005 1.01 1.01 0 0 1 .335-.597.998.998 0 0 1 .523-.233c.062-.008.128-.002.19-.015a.284.284 0 0 0 .218-.267c.065-5.245.107-10.493-.003-15.737a5.344 5.344 0 0 0-1.66-3.718c-.12-.11-.247-.216-.37-.32-.09-.08-.09-.08-.175-.16a4.753 4.753 0 0 1-1.442-2.96l-.855-8.767h-2.05l-.784 8.044c-.055.495-.19.977-.348 1.45-.162.484-.35.963-.574 1.423l-.033.065c-.02.034-.038.068-.06.1a1.006 1.006 0 0 1-1.522.172 1.01 1.01 0 0 1-.304-.844c.012-.102.024-.127.054-.225.058-.13.123-.26.182-.39.145-.332.274-.67.385-1.015.09-.278.172-.56.22-.85L16.7 9.9c.314-2.802.548-5.61.822-8.415l.008-.066c.03-.18.08-.35.162-.51.192-.377.53-.67.93-.807.148-.05.3-.075.453-.086a59.157 59.157 0 0 1 2.857 0zM11.195 19.552c-2.327 2.32-4.716 4.58-7.052 6.89l7.31 2.925a1.977 1.977 0 0 1 .44-1.085c.16-.196.356-.362.577-.485.256-.142.538-.222.83-.247.064-.003.127-.004.19-.003.292.01.577.076.84.206a2.005 2.005 0 0 1 .928.95 2.02 2.02 0 0 1-.25 2.087l6.228 2.49c-.518-1.295-1.025-2.598-1.526-3.902a1.53 1.53 0 0 1-.697.572 1.526 1.526 0 0 1-1.14 0 1.518 1.518 0 0 1-.605-2.36c.113-.14.25-.258.405-.35.214-.126.45-.19.697-.207.074-.002.073-.002.146 0 .107.007.212.024.315.05-.925-2.42-1.85-4.84-2.824-7.24a2.686 2.686 0 0 1-1.014.99c-.25.14-.52.238-.8.292-.69.133-1.42-.01-2.007-.396a2.734 2.734 0 0 1-.99-1.177zm13.357 9.963a.507.507 0 0 1 .48.486c.004.347.03.7-.004 1.047a.49.49 0 0 1-.193.34.505.505 0 0 1-.75-.17.513.513 0 0 1-.053-.213c-.005-.348-.03-.7.003-1.047a.507.507 0 0 1 .517-.444zm-10.562.867l.024-.016a1.005 1.005 0 0 0-.04-1.67 1.017 1.017 0 0 0-.555-.15 1.03 1.03 0 0 0-.42.102 1.008 1.008 0 0 0-.3.226c-.22.244-.302.585-.23.9l1.52.607zm4.428-2.35a.527.527 0 0 0-.236.07.52.52 0 0 0-.084.826.517.517 0 0 0 .8-.144.522.522 0 0 0-.194-.684.53.53 0 0 0-.236-.07h-.05zm6.18-10.513a.503.503 0 0 1 .43.45c.16 3.512.003 7.03.003 10.546a.517.517 0 0 1-.153.36.504.504 0 0 1-.775-.104.563.563 0 0 1-.07-.212c-.156-3.51 0-7.03 0-10.544.002-.06.01-.12.03-.176a.505.505 0 0 1 .537-.32zM9.984 23.047c.293.01.58.076.842.206a2.016 2.016 0 0 1 .932.955c.26.562.244 1.23-.044 1.78a2.014 2.014 0 0 1-1.73 1.072 2 2 0 0 1-1.777-.986 2.005 2.005 0 0 1 1.777-3.027zm-.072 1a1.01 1.01 0 0 0-.856 1.498 1.01 1.01 0 0 0 1.436.35c.352-.232.524-.672.424-1.082a1.005 1.005 0 0 0-1.003-.767zm4.102-8.892c-.08-.18-.163-.36-.245-.54a1.013 1.013 0 0 0-.762-.56 1.03 1.03 0 0 0-.82.26c-3.363 3.26-6.784 6.47-9.935 9.937-.08.094-.146.2-.19.315-.128.352-.045.757.213 1.03.102.108.225.187.362.244l.467.188c3.48-3.773 7.264-7.257 10.91-10.873zm.455 1.028c-.81.87-1.637 1.724-2.474 2.57.005.03.01.06.018.09a1.722 1.722 0 0 0 .834 1.117 1.73 1.73 0 0 0 1.197.175 1.713 1.713 0 0 0 .81-.43c.38-.36.572-.885.522-1.404-.13-.31-.26-.62-.393-.93l-.038-.043c-.035-.038-.072-.073-.104-.113a.863.863 0 0 1-.048-.075.552.552 0 0 1-.055-.2.54.54 0 0 1 .008-.12 87.33 87.33 0 0 0-.276-.637z"/></symbol><symbol viewBox="0 0 45 39" id="svg-category-fund"><title>:: fund</title><path d="M16.28 8.958a1.24 1.24 0 0 1-.052-.223 8.567 8.567 0 0 1 .35-2.972c.242-.778.597-1.52 1.057-2.192a7.615 7.615 0 0 1 2.39-2.255c.45-.267.93-.486 1.43-.648A7.182 7.182 0 0 1 23.51.325h.192c.658.012 1.31.108 1.94.3a7.383 7.383 0 0 1 3.164 1.955 7.957 7.957 0 0 1 1.47 2.144 8.318 8.318 0 0 1 .744 2.765c.335.075.667.158.998.25l.085.025c.14-.147.14-.147.284-.293.142-.14.14-.14.285-.28.43-.4.877-.782 1.363-1.115.732-.503 1.54-.893 2.408-1.096.357-.082.72-.134 1.086-.162.337-.026.677-.034 1.016-.058l.11-.01.117-.005.115.01c.038.006.076.01.114.02a1.007 1.007 0 0 1 .707 1.265.953.953 0 0 1-.125.257l-.033.156c-.064.352-.113.705-.162 1.058-.103.772-.2 1.545-.304 2.317a59.08 59.08 0 0 1-.304 1.966l-.025.14a4.973 4.973 0 0 1 .39.375c.425.46.775.98 1.09 1.52.438.752.805 1.544 1.195 2.323.075.145.15.288.227.43.048.087.098.172.15.256l.033.047.16.02.125.02a4.98 4.98 0 0 1 .838.23c.724.27 1.424.736 1.788 1.44.115.22.193.462.226.71.026.186.022.374.016.56a7.62 7.62 0 0 1-.058.725c-.083.64-.252 1.277-.55 1.852a4.15 4.15 0 0 1-.528.78c-.328.38-.743.69-1.2.9a4.095 4.095 0 0 1-1.044.313l-.03.005a9.243 9.243 0 0 1-.282.71 13.73 13.73 0 0 1-1.653 2.742 15.917 15.917 0 0 1-1.742 1.944c-.355.332-.727.65-1.126.93-.336.234-.693.445-1.085.57l-.018.006a9.11 9.11 0 0 0-.138.957c-.05.492-.092.985-.142 1.476-.072.66-.157 1.325-.335 1.968-.127.458-.304.913-.587 1.3a2.26 2.26 0 0 1-.564.547c-.133.088-.275.16-.425.213a2.1 2.1 0 0 1-.83.11 2.554 2.554 0 0 1-1.21-.38 2.87 2.87 0 0 1-.743-.68c-.632-.81-.868-1.83-1.15-2.794l-.01-.033c-2.106.03-4.21.074-6.315.106-.722.01-1.443.02-2.165.027l-.59.005c-.18 0-.385-.008-.575.005a.49.49 0 0 0-.107.02c-.09.03-.145.12-.187.2l-.05.097-.048.115-.05.134c-.022.06-.03.086-.05.148-.08.244-.153.49-.234.733a6.255 6.255 0 0 1-.304.746 3.11 3.11 0 0 1-.798 1.026c-.286.236-.62.41-.973.518a3.65 3.65 0 0 1-.94.153 3.06 3.06 0 0 1-1.27-.196 2.576 2.576 0 0 1-1.05-.786c-.545-.682-.752-1.573-.863-2.422-.02-.16-.04-.323-.054-.485a26.43 26.43 0 0 1-.06-.793c-.022-.344-.04-.688-.066-1.03-.01-.132-.022-.262-.035-.392a5.577 5.577 0 0 0-.1-.63 1.286 1.286 0 0 0-.118-.342c-.023-.036-.074-.042-.11-.063-.143-.082-.286-.164-.427-.25a11.347 11.347 0 0 1-.807-.53 8.78 8.78 0 0 1-1.112-.963 8.28 8.28 0 0 1-.768-.913 8.375 8.375 0 0 1-.462-.705c-.914-1.554-1.335-3.35-1.48-5.132l-.008-.126a18.412 18.412 0 0 0-.25-1.23l-.01-.042c-.007.217-.015.434-.026.65-.01.153-.02.304-.033.455-.01.112-.02.223-.037.334-.07.507-.21 1.045-.59 1.412a1.335 1.335 0 0 1-1.334.32 1.41 1.41 0 0 1-.544-.32c-.228-.213-.384-.49-.496-.78-.17-.43-.255-.89-.33-1.343v-.004l-.09.132-.082.11a2.207 2.207 0 0 1-.95.697c-.3.113-.62.16-.94.156a2.034 2.034 0 0 1-.34-.026.993.993 0 0 1-.34-.13 1.01 1.01 0 0 1-.45-1.088 1.013 1.013 0 0 1 .365-.56c.153-.116.34-.187.53-.202.106-.008.21.01.314.006a.79.79 0 0 0 .11-.013.314.314 0 0 0 .073-.028.387.387 0 0 0 .127-.157c.04-.074.07-.152.097-.232.05-.156.084-.318.11-.48.043-.252.068-.506.093-.76.015-.147.03-.294.048-.44.012-.09.024-.178.038-.267.028-.157.06-.313.11-.465.075-.222.188-.434.35-.605a1.227 1.227 0 0 1 .45-.306c.12-.05.245-.072.375-.087.08-.003.08-.004.162 0a1.222 1.222 0 0 1 .558.168c.056.033.108.07.158.11.432.346.59.91.704 1.428l.008.04c.016-.06.033-.12.052-.18.02-.058.04-.113.062-.17.093-.217.214-.42.386-.585a1.35 1.35 0 0 1 .934-.38c.31 0 .61.1.864.274.077.052.15.11.218.175.676-2.01 1.95-3.79 3.443-5.277.787-.785 1.645-1.5 2.55-2.142a21.793 21.793 0 0 1 2.464-1.512zm-6.878 13.63c.01.105.022.208.035.31.198 1.592.682 3.198 1.706 4.46.38.47.828.88 1.32 1.23.36.253.74.47 1.12.688l.07.043c.128.086.246.18.35.295.425.458.596 1.087.69 1.688.023.147.042.294.057.442.022.2.038.4.052.602.03.45.054.9.088 1.35.037.46.08.923.19 1.373.062.248.142.506.29.718a.69.69 0 0 0 .145.155c.16.123.374.13.567.122.243-.01.508-.05.705-.205a.895.895 0 0 0 .196-.216c.136-.202.22-.435.298-.664.092-.27.17-.544.262-.814l.07-.2c.085-.216.176-.427.294-.626.212-.36.502-.67.867-.874a2.18 2.18 0 0 1 .424-.183c.228-.072.463-.103.7-.112.19-.002.38 0 .57-.002.414-.002.828-.007 1.243-.012 2.712-.034 5.423-.092 8.135-.13h.23c.133.005.265.024.39.07a1.278 1.278 0 0 1 .38.227c.345.297.497.744.626 1.166.083.277.16.555.24.833.043.138.086.276.133.412a5.663 5.663 0 0 0 .21.514c.03.06.063.122.098.182.105.175.24.37.438.45.072.03.15.04.226.04.002 0 .01-.01.012-.01.015-.016.027-.032.04-.05.07-.097.12-.206.163-.318.062-.16.11-.327.15-.495.105-.44.164-.887.215-1.335.064-.585.11-1.172.172-1.757a14.528 14.528 0 0 1 .11-.806c.087-.475.222-.984.573-1.337.073-.073.153-.138.24-.194a1.16 1.16 0 0 1 .388-.16c.007 0 .09-.018.12-.022l.095-.01c.012 0 .012.003.022 0 .026-.01.052-.02.077-.032.28-.135.535-.323.778-.518.38-.307.736-.646 1.073-1a13.933 13.933 0 0 0 1.76-2.272c.455-.733.838-1.518 1.053-2.355l.037-.113c.044-.096.05-.123.112-.21a.996.996 0 0 1 .463-.362c.1-.038.127-.04.23-.058.126-.01.252-.01.378-.018.166-.015.33-.04.49-.086.266-.078.51-.213.707-.408.095-.096.177-.203.25-.316.088-.14.16-.292.218-.448.094-.247.156-.506.196-.766a5.394 5.394 0 0 0 .063-.768c0-.04.004-.086-.003-.127a.24.24 0 0 0-.02-.052.607.607 0 0 0-.13-.158 1.426 1.426 0 0 0-.266-.184 2.55 2.55 0 0 0-.863-.29c-.102-.014-.203-.016-.305-.02l-.098-.012a1.512 1.512 0 0 1-.342-.108c-.266-.124-.48-.333-.66-.563a5.918 5.918 0 0 1-.558-.92c-.11-.21-.215-.423-.32-.635-.148-.3-.296-.603-.447-.903-.097-.19-.195-.377-.296-.564-.24-.438-.498-.874-.814-1.265-.198-.244-.42-.48-.7-.63l-.1-.06c-.08-.065-.104-.078-.174-.156a1.006 1.006 0 0 1-.252-.638c-.003-.104.006-.13.02-.232.035-.16.066-.322.097-.483.284-1.55.458-3.115.672-4.675l.025-.19-.06.008c-.33.043-.656.113-.97.224a5.7 5.7 0 0 0-1.477.81c-.67.494-1.255 1.09-1.806 1.71l-.08.08c-.075.06-.092.08-.18.128a1 1 0 0 1-.642.116c-.135-.02-.26-.077-.388-.122l-.246-.08c-.793-.233-1.604-.4-2.42-.533-1.094-.18-2.2-.29-3.308-.335a25.4 25.4 0 0 0-1.892-.007c-.395.014-.79.033-1.183.075-.373.04-.744.098-1.112.173-1.436.292-2.826.813-4.135 1.47a19.042 19.042 0 0 0-4.65 3.252c-.84.804-1.6 1.697-2.216 2.684a9.59 9.59 0 0 0-1.083 2.37 7.38 7.38 0 0 0-.276 1.482 8.943 8.943 0 0 0-.02.835c.006.298.018.596.038.893.015.092.03.185.042.278.006.053.006.052.01.105 0 .05-.003.097-.008.144zm10.755-11.794a.514.514 0 0 1 .395.27.51.51 0 0 1-.088.583.507.507 0 0 1-.282.143c-.08.03-.156.065-.233.1-.764.35-1.498.765-2.21 1.21-.48.303-.95.62-1.406.96a18.975 18.975 0 0 0-1.74 1.452 13.767 13.767 0 0 0-1.03 1.09c-.922 1.094-1.676 2.385-1.89 3.817a5.858 5.858 0 0 0-.062.897v.043a.532.532 0 0 1-.088.244.505.505 0 0 1-.763.073.527.527 0 0 1-.147-.31c-.004-.09-.002-.18 0-.27.01-.352.044-.7.107-1.047.32-1.727 1.294-3.257 2.466-4.533a15.76 15.76 0 0 1 1.25-1.215c.317-.278.643-.545.977-.802.45-.346.915-.674 1.39-.985.69-.453 1.404-.873 2.14-1.25.225-.114.452-.226.684-.328.133-.058.268-.12.412-.142a.93.93 0 0 1 .117 0zm15.617 4.757a1.025 1.025 0 0 1 .565.192 1.044 1.044 0 0 1 .41.685c.012.092.018.186.023.28.008.178.01.358.01.537 0 .18-.002.36-.01.538a2.92 2.92 0 0 1-.025.28 1.044 1.044 0 0 1-.406.682.99.99 0 0 1-1.144.026.99.99 0 0 1-.18-.15c-.124-.134-.21-.3-.25-.478a2.168 2.168 0 0 1-.04-.36 12.07 12.07 0 0 1 0-1.076c.005-.093.01-.187.024-.28a1.05 1.05 0 0 1 .355-.64 1.01 1.01 0 0 1 .667-.235zm.21-7.566c.076.005.15.024.216.06.235.13.327.432.203.67a.522.522 0 0 1-.185.197c-.08.046-.163.083-.243.127-.673.386-1.22.954-1.706 1.55-.118.143-.23.29-.342.436-.068.092-.132.19-.205.276a.52.52 0 0 1-.452.164.506.506 0 0 1-.422-.538.522.522 0 0 1 .08-.234c.093-.133.193-.262.29-.39.536-.692 1.122-1.36 1.84-1.868.164-.116.335-.222.513-.317.096-.05.19-.104.297-.126a.613.613 0 0 1 .113-.006zm-7.033-.872a6.282 6.282 0 0 0-.716-1.98 5.815 5.815 0 0 0-1.42-1.668 5.29 5.29 0 0 0-1.625-.886 5.027 5.027 0 0 0-4.03.39c-1.314.736-2.266 2.018-2.69 3.453a6.415 6.415 0 0 0-.254 1.64 17.32 17.32 0 0 1 3.414-1.005c.375-.067.752-.12 1.13-.155.39-.036.78-.055 1.168-.068.614-.02 1.23-.02 1.843 0 1.064.036 2.127.13 3.18.28zm10.03-.393l-.115.02.104-.013.093-.032a8.957 8.957 0 0 0-.083.024zm.128-.04c.036-.013.036-.012.07-.03l-.07.03z" fill-rule="evenodd"/></symbol><symbol viewBox="0 0 29 35" fill-rule="evenodd" clip-rule="evenodd" stroke-linejoin="round" stroke-miterlimit="1.414" id="svg-category-legal"><path d="M23.09 9.732l.08-.064a3.03 3.03 0 0 1 2.382-.608 3.14 3.14 0 0 1 1.05.397c.277.174.527.384.737.635.56.672.803 1.577.652 2.44a3.088 3.088 0 0 1-.32.917c-2.04 3.554-4.04 7.02-6.087 10.543a3.09 3.09 0 0 1-.808.87 3.024 3.024 0 0 1-2.555.454 3.004 3.004 0 0 1-2.053-1.976 3.03 3.03 0 0 1-.093-1.46l-2.747-1.587S5.837 33.31 5.31 34.183a1.006 1.006 0 0 1-1.312.35 103.247 103.247 0 0 1-3.532-2.038 1.008 1.008 0 0 1-.458-.976c.017-.12.055-.23.108-.336.492-.894 8.02-13.89 8.02-13.89L5.357 15.69a3.03 3.03 0 0 1-2.753.61 3.01 3.01 0 0 1-2.053-1.976 2.99 2.99 0 0 1 .22-2.347A481.7 481.7 0 0 1 6.86 1.433c.187-.297.416-.563.692-.782A3.023 3.023 0 0 1 9.935.045c.322.056.628.167.917.32.068.038.067.037.133.077a3.1 3.1 0 0 1 .736.635 3.028 3.028 0 0 1 .645 2.493c3.58 2.048 7.216 4.002 10.726 6.164zM4.6 31.417l-1.732-1-.5.866 1.732 1 .5-.866zm7-12.124l-1.732-1L3.88 28.658l1.733 1 5.985-10.365zm12.562-7.76l-6.025 10.44c-.055.11-.092.23-.104.353-.027.282.07.57.26.78a1.01 1.01 0 0 0 .588.31 1.014 1.014 0 0 0 .713-.164c.118-.08.213-.183.29-.303 2.06-3.468 4.165-6.913 6.048-10.48.044-.09.077-.183.094-.28a1.017 1.017 0 0 0-.203-.797 1.015 1.015 0 0 0-.26-.23l-.046-.026a1.006 1.006 0 0 0-1.33.357l-.023.038-.002.004zM9.805 4.4c.17-.314.338-.63.505-.944a1.007 1.007 0 0 0-.368-1.307l-.046-.026a1.03 1.03 0 0 0-.304-.106 1.017 1.017 0 0 0-.796.203c-.092.073-.167.16-.23.26C6.507 5.944 4.4 9.39 2.52 12.957c-.056.11-.092.228-.105.352a1.013 1.013 0 0 0 .54.99 1.005 1.005 0 0 0 1.02-.065c.117-.08.213-.183.288-.303.41-.69 5.545-9.534 5.545-9.534zM8.268 15.06l5-8.66-1.732-1-5 8.66 1.732 1zm1.732 1l3.53 2.038 5-8.66-3.563-2.06L10 16.062zm11.918-4.665l-1.742-1.006-5 8.66 1.742 1.005a479.874 479.874 0 0 1 5-8.66z"/></symbol><symbol viewBox="0 0 30 40" id="svg-category-marketing"><title>:: mkt</title><path d="M7.622 32.788a3.676 3.676 0 0 1-.643-.58 3.402 3.402 0 0 1-.62-1.06c-.273-.754-.276-1.562-.24-2.352.02-.433.052-.864.074-1.297.01-.268.017-.535.014-.802 0-.068 0-.068-.003-.136v-.003l-.02-.11c-.01-.14-.01-.277-.02-.415-.006-.07-.013-.142-.022-.213a4.506 4.506 0 0 0-1.173-2.42c-.12-.126-.25-.242-.375-.363-.347-.35-.68-.71-.988-1.092A12.965 12.965 0 0 1 1.82 19.04a12.314 12.314 0 0 1 .07-10.165c.89-1.938 2.272-3.632 3.952-4.94A14.55 14.55 0 0 1 9.644 1.81c1.144-.43 2.34-.717 3.554-.86a16.233 16.233 0 0 1 1.62-.103h.365c.54.01 1.08.04 1.62.104 1.1.13 2.185.378 3.23.744a14.607 14.607 0 0 1 3.727 1.943 13.546 13.546 0 0 1 3.985 4.507c.44.817.793 1.682 1.043 2.577a12.336 12.336 0 0 1-.14 7.097 12.842 12.842 0 0 1-2.255 4.13c-.275.34-.566.665-.872.976-.075.076-.154.155-.232.23-.086.083-.175.162-.258.248-.05.054-.098.108-.145.164-.475.574-.832 1.252-.982 1.985a4.11 4.11 0 0 0-.08.79l-.007.11-.02.11c-.006.02-.002.04-.002.06-.003.102-.003.116-.004.24.004.646.058 1.29.09 1.936.01.164.01.163.014.328.013.653-.015 1.313-.224 1.938-.08.235-.18.46-.308.674-.082.14-.175.27-.278.396-.206.253-.445.47-.707.655.017.067.027.135.03.203.004.106-.01.213-.025.318-.04.292-.11.58-.22.854a2.893 2.893 0 0 1-.58.9c-.295.31-.647.55-1.028.736.024.052.044.106.06.162.043.165.034.328.012.496-.036.262-.103.52-.212.764a2.52 2.52 0 0 1-1.026 1.122 4.27 4.27 0 0 1-1.13.447 9.39 9.39 0 0 1-1.48.234c-.65.056-1.306.07-1.96.067a18.6 18.6 0 0 1-1.872-.093 11.394 11.394 0 0 1-.872-.133c-.774-.156-1.573-.442-2.108-1.052a2.42 2.42 0 0 1-.216-.287 2.44 2.44 0 0 1-.255-.54 2.844 2.844 0 0 1-.14-.786.988.988 0 0 1 .09-.402 5.384 5.384 0 0 1-.198-.104 3.463 3.463 0 0 1-.75-.55 2.925 2.925 0 0 1-.573-.792c-.147-.3-.24-.622-.292-.95-.03-.183-.057-.37-.023-.554l.012-.06zM18.6 36.376a15.94 15.94 0 0 1-1.376.162c-.822.064-1.647.08-2.47.076a25.832 25.832 0 0 1-2.36-.11 13.796 13.796 0 0 1-.993-.128.37.37 0 0 0 .044.084.64.64 0 0 0 .222.18c.156.087.328.145.5.192a5.627 5.627 0 0 0 .885.163c.702.085 1.412.1 2.118.096.697-.004 1.4-.028 2.09-.137.326-.052.66-.12.964-.256.124-.056.265-.13.34-.248a.455.455 0 0 0 .038-.074zm-8.69-2.65c.122.117.274.207.426.28.385.186.808.29 1.226.367.184.035.368.063.553.088 1.032.137 2.08.16 3.12.154.55-.004 1.104-.02 1.654-.057.474-.032.95-.08 1.418-.16.46-.08.932-.186 1.356-.39.152-.074.304-.164.427-.282l-.103.023c-.243.053-.487.098-.733.137-.27.043-.54.078-.81.108-.363.04-.726.07-1.09.093-.48.03-.96.05-1.44.06-.682.013-1.364.012-2.045-.006a31.703 31.703 0 0 1-1.415-.066 23.756 23.756 0 0 1-1.067-.1 16.35 16.35 0 0 1-.795-.114c-.194-.033-.387-.07-.58-.112l-.104-.023zm8.102-1.698c.56-.054 1.116-.133 1.662-.26.453-.104.91-.24 1.32-.468.246-.138.477-.316.63-.557.112-.174.176-.372.215-.573.045-.238.057-.483.058-.726 0-.136-.003-.27-.008-.407-.02-.483-.058-.964-.082-1.447a16.06 16.06 0 0 1-.01-1.12l.003-.097c.005-.083.01-.165.027-.247.002-.08.008-.163.013-.244.03-.348.085-.692.172-1.03a6.603 6.603 0 0 1 1.66-2.922 12.567 12.567 0 0 0 1.17-1.242 10.95 10.95 0 0 0 1.51-2.458c.45-1.014.736-2.097.843-3.2a10.35 10.35 0 0 0-.902-5.32c-.758-1.647-1.935-3.085-3.364-4.196a12.52 12.52 0 0 0-3.28-1.83 13.073 13.073 0 0 0-3.08-.747 14.118 14.118 0 0 0-1.41-.09h-.32c-.47.008-.94.035-1.41.09-1.1.13-2.186.396-3.22.8-2.426.944-4.564 2.646-5.92 4.88a10.8 10.8 0 0 0-.694 1.344 10.337 10.337 0 0 0-.76 5.348c.142 1.144.48 2.26.987 3.295.426.868.97 1.676 1.606 2.404.282.324.585.63.9.923.065.068.13.136.194.207.73.828 1.27 1.83 1.51 2.91.08.348.12.7.14 1.056 0 .035.002.034.01.068.03.29.028.584.025.874-.01.617-.062 1.232-.094 1.848-.006.14-.01.28-.014.42 0 .272.004.543.05.81.034.194.09.385.185.556.224.402.65.64 1.063.808.41.166.842.273 1.275.356.434.084.873.142 1.313.185l-2.84-12.674a.505.505 0 0 1 .453-.608c.05 0 .05 0 .102.003a.5.5 0 0 1 .388.29c.02.042.02.054.032.097l2.907 12.972c.436.023.873.036 1.31.043.876.012 1.754.003 2.63-.044l2.907-12.972c.012-.043.013-.055.032-.096a.5.5 0 0 1 .387-.29c.05-.004.05-.004.102-.003a.505.505 0 0 1 .453.608l-2.84 12.674zm.595-15.63c.072.01.134.028.2.06.397.24.776.513 1.164.77a.52.52 0 0 1 .212.307.505.505 0 0 1-.525.61.55.55 0 0 1-.24-.083l-.85-.565-1.522 1.01-.037.02a.596.596 0 0 1-.117.047.52.52 0 0 1-.402-.07l-1.482-1.005-1.505 1.005-.035.02a.51.51 0 0 1-.518-.02l-1.522-1.008-.846.564-.038.023a.496.496 0 0 1-.487-.003c-.216-.123-.31-.395-.216-.624a.538.538 0 0 1 .15-.202c.374-.273.77-.516 1.156-.773a.508.508 0 0 1 .554 0l1.52 1.008 1.51-1.007.037-.02a.622.622 0 0 1 .117-.048.517.517 0 0 1 .405.07l1.48 1.005 1.52-1.007.035-.022a.628.628 0 0 1 .2-.06h.082zM12.13 4.118a.52.52 0 0 1 .29.106.504.504 0 0 1 .082.702.55.55 0 0 1-.183.145c-.128.053-.258.098-.386.147-.73.292-1.437.638-2.107 1.053-1.64 1.014-3.053 2.402-4.05 4.056A11.166 11.166 0 0 0 4.76 12.51c-.04.124-.076.25-.12.372-.015.036-.015.035-.034.07a.517.517 0 0 1-.307.23.513.513 0 0 1-.345-.038.504.504 0 0 1-.266-.56c.015-.072.04-.142.064-.213a12.587 12.587 0 0 1 .253-.71 12.19 12.19 0 0 1 1.11-2.17c1.206-1.868 2.904-3.4 4.854-4.46a13.96 13.96 0 0 1 1.784-.815c.087-.033.17-.068.258-.09a.768.768 0 0 1 .117-.008z" fill-rule="evenodd"/></symbol><symbol viewBox="0 0 43 32" id="svg-category-office"><title>:: office</title><path d="M5 21.8V1.946c.002-.037.002-.075.006-.112a1.01 1.01 0 0 1 .882-.882C5.925.95 5.963.95 6 .947h32l.112.006c.037.006.074.01.11.02a.998.998 0 0 1 .772.862c.004.037.004.075.006.112V22c0 .012 0 .025-.002.038l3.724 5.394c.02.034.043.068.062.103a.992.992 0 0 1 .113.412l.03.066c.044.11.067.225.072.343.014.903.04 1.807-.002 2.708a1.037 1.037 0 0 1-.21.552l-.002.002-.003.003v.003h-.002v.004l-.004.003v.002l-.002.002-.003.003v.002l-.003.002-.003.004-.006.006v.002h-.003l-.002.004v.002l-.004.003h-.003v.002a.845.845 0 0 1-.05.053c-.015.014-.03.026-.043.04h-.003v.002a1 1 0 0 1-.525.232c-.04.005-.083.005-.125.008H1.998a.99.99 0 0 1-.646-.24 1.014 1.014 0 0 1-.24-.297 1.025 1.025 0 0 1-.11-.43c-.016-.894-.043-1.79 0-2.682a.992.992 0 0 1 .048-.815c.02-.035.04-.07.062-.103L5 21.8zM3.01 29c.007.333.012.667.01 1h37.963a41.668 41.668 0 0 1-.002-1H3.01zm3.59-6l-2.76 4h36.153l-2.76-4H6.6zM37 2.947H7V21h30V2.947zM11 7c0 1.058.024 2.115 0 3.173l-.01.094c-.032.19-.107.366-.234.513a1.01 1.01 0 0 1-1.41.1.997.997 0 0 1-.345-.707 89.996 89.996 0 0 1 0-4.22 1.006 1.006 0 0 1 .95-.95c1.96-.048 3.92-.048 5.88-.002.16.013.313.053.452.134.336.194.532.575.496.96a1.02 1.02 0 0 1-.272.596 1.008 1.008 0 0 1-.724.31H11z" fill-rule="evenodd"/></symbol><symbol viewBox="0 0 55 20" id="svg-category-other"><title>:: other</title><path d="M37.788 17.83c-.178.272-.364.537-.556.8l-.09.12c-.046.055-.056.07-.107.12a.983.983 0 0 1-.572.273 1.01 1.01 0 0 1-.32-.012 1.01 1.01 0 0 1-.79-.817.994.994 0 0 1 .067-.552c.028-.065.04-.08.074-.142.12-.173.248-.34.37-.51.647-.934 1.195-1.933 1.578-3.003.236-.66.41-1.34.514-2.032.075-.495.114-.995.118-1.495.003-.35-.01-.703-.04-1.053-.18-2.133-.942-4.18-1.953-6.052-.19-.353-.39-.7-.596-1.043l-.04-.07a1.08 1.08 0 0 1-.102-.387 1.008 1.008 0 0 1 .518-.935c.12-.066.247-.1.382-.12.08-.003.08-.003.16-.002.072.008.09.007.16.023a1.01 1.01 0 0 1 .59.39c.068.103.066.103.13.207.665 1.123 1.26 2.29 1.725 3.51.693 1.812 1.104 3.74 1.065 5.687-.012.64-.073 1.277-.182 1.907-.15.868-.39 1.717-.714 2.535-.308.782-.69 1.533-1.13 2.25a1.027 1.027 0 0 1 .687-.274c1.11-.002 2.217-.02 3.325 0a.992.992 0 0 1 .906.663c.032.09.052.184.057.28.022.392-.196.77-.545.946a1.02 1.02 0 0 1-.453.108c-1.108 0-2.216.02-3.324 0a1.007 1.007 0 0 1-.906-.663 1.01 1.01 0 0 1-.004-.656zm-19.87-.405a14.013 14.013 0 0 1-1.536-3.44 12.674 12.674 0 0 1-.485-3.938c.06-1.865.52-3.697 1.226-5.42.438-1.07.97-2.096 1.56-3.09l.084-.138c.04-.06.047-.077.094-.132a1.005 1.005 0 0 1 .7-.352c.082 0 .082 0 .162.003.135.018.262.052.382.118.336.183.54.553.518.935a1.08 1.08 0 0 1-.103.386c-.063.113-.132.223-.197.334-.077.13-.15.26-.226.39-.305.545-.592 1.1-.85 1.67-.7 1.543-1.2 3.193-1.326 4.89-.028.387-.037.777-.025 1.166a10.653 10.653 0 0 0 .753 3.63 12.5 12.5 0 0 0 1.084 2.114c.217.342.45.673.693.998l.045.066a1.002 1.002 0 0 1-1.48 1.306c-.142-.116-.243-.274-.35-.42-.158-.22-.312-.44-.46-.667a1.01 1.01 0 0 1-.498 1.205c-.14.072-.294.106-.452.108-1.108 0-2.216.02-3.324 0a.996.996 0 0 1-.963-.945 1.01 1.01 0 0 1 .547-.946c.14-.073.294-.107.452-.11 1.108 0 2.216-.02 3.324 0 .146.01.286.043.416.11.086.042.166.098.236.165zM7.948.85c.11.01.212.028.314.067.227.088.416.26.528.475a1.2 1.2 0 0 1 .083.226l3.884 16.3c.014.07.02.088.025.16a1.007 1.007 0 0 1-1.205 1.05 1.007 1.007 0 0 1-.766-.747l-3.883-16.3a1.147 1.147 0 0 1-.024-.32c.03-.323.22-.62.503-.78.12-.068.246-.103.38-.124.08-.006.08-.006.162-.005zm40.23.006c.133.02.26.056.38.124.282.16.473.457.502.78.01.11-.003.214-.024.32l-3.883 16.302a1.007 1.007 0 0 1-.765.747 1.01 1.01 0 0 1-1.05-.437 1.005 1.005 0 0 1-.157-.614c.005-.072.01-.09.024-.16l3.884-16.3a1.007 1.007 0 0 1 .61-.7 1.12 1.12 0 0 1 .316-.067c.08 0 .08 0 .16.006zM32.473 8.44a.985.985 0 0 1 .51.175c.176.12.31.297.38.498.035.103.052.213.068.32a3.277 3.277 0 0 1-.017 1.087 3.64 3.64 0 0 1-.287.894c-.387.84-1.04 1.53-1.75 2.107-.55.447-1.148.834-1.765 1.18-.59.333-1.202.63-1.83.885l-.11.043a1.024 1.024 0 0 1-.795-.063.998.998 0 0 1-.452-.494 1.01 1.01 0 0 1 .125-.992c.094-.122.212-.217.348-.29.068-.03.14-.058.21-.087.096-.04.11-.045.212-.09.332-.146.66-.302.98-.472.27-.142.535-.292.794-.452a9.04 9.04 0 0 0 1.022-.718c.385-.313.753-.666 1.025-1.084.157-.242.283-.512.318-.8.013-.105.014-.21 0-.315-.006-.063-.02-.124-.03-.185l-.01-.09a1.006 1.006 0 0 1 1.055-1.056h.002zm-9.016-2.656a1.008 1.008 0 0 1 .938.754c.038.164.073.33.112.495.12.496.253.988.41 1.474.11.34.232.68.374 1.01.1.23.207.46.338.675.073.12.153.243.254.344.042.042.092.072.138.11a1.023 1.023 0 0 1 .342.534c.025.096.035.198.03.298a1.01 1.01 0 0 1-1.12.937 1.01 1.01 0 0 1-.365-.12 2.057 2.057 0 0 1-.44-.344c-.295-.296-.525-.654-.72-1.023-.305-.574-.534-1.188-.734-1.806-.227-.7-.418-1.415-.568-2.136a1.043 1.043 0 0 1 .004-.427 1.01 1.01 0 0 1 .546-.68 1.086 1.086 0 0 1 .46-.096zm2.805-.594c.086.005.17.016.254.04a1.005 1.005 0 0 1 .684.713c.04.166.074.332.113.497.12.495.253.988.41 1.473.11.342.232.68.374 1.01.1.23.207.46.338.675.073.122.153.244.254.345.04.042.09.072.138.108.033.03.064.058.094.09.118.127.205.276.247.446a1.007 1.007 0 0 1-.706 1.208.993.993 0 0 1-.75-.09 2.057 2.057 0 0 1-.438-.345c-.296-.297-.526-.656-.72-1.024-.306-.575-.535-1.19-.735-1.807-.226-.7-.417-1.416-.567-2.136a1.06 1.06 0 0 1 .014-.47 1.012 1.012 0 0 1 .867-.73c.043-.003.085-.004.13-.004zM54.056.85c.163.01.32.05.46.13.326.186.524.548.505.92a1.012 1.012 0 0 1-.238.6 1.017 1.017 0 0 1-.295.235c-.134.07-.28.106-.43.114a88.53 88.53 0 0 1-3.093 0 1.018 1.018 0 0 1-.702-.325A1.006 1.006 0 0 1 50.24 1.2a1.004 1.004 0 0 1 .724-.35 88.53 88.53 0 0 1 3.092 0zM5 .85c.162.01.32.05.46.13a1.01 1.01 0 0 1 .44 1.223 1.01 1.01 0 0 1-.47.532c-.134.07-.28.106-.43.114a88.53 88.53 0 0 1-3.092 0 1.01 1.01 0 0 1-.9-.645A1.008 1.008 0 0 1 1.447.98c.14-.08.298-.12.46-.13A88.53 88.53 0 0 1 5 .85z" fill-rule="evenodd"/></symbol><symbol viewBox="0 0 31 27" id="svg-category-supplies---materials"><title>:: office supplies</title><path d="M8.323 4.393a2.53 2.53 0 0 1 1.638.724l9.745 9.745c.024.026.048.05.07.078a1 1 0 0 1 .157.987c-.14.365-.49.62-.882.64-.21.012-.42-.045-.596-.16-.078-.05-.093-.07-.162-.13-3.26-3.26-6.25-6.81-9.777-9.774a.505.505 0 0 0-.194-.098.507.507 0 0 0-.62.462.508.508 0 0 0 .136.367c4.088 4.2 8.237 8.338 12.43 12.43.223.207.48.365.768.46a2.018 2.018 0 0 0 1.19.03 2.056 2.056 0 0 0 1.49-1.82 2.047 2.047 0 0 0-.557-1.56c-4.426-4.538-8.88-9.05-13.448-13.447a4.09 4.09 0 0 0-1.543-.918 4.07 4.07 0 0 0-3.09.243 4.067 4.067 0 0 0-2.184 4.115A4.058 4.058 0 0 0 4.013 9.1c4.692 4.75 9.355 9.532 14.165 14.162.53.497 1.138.902 1.81 1.184a6.05 6.05 0 0 0 3.406.37 5.988 5.988 0 0 0 3.387-1.89 5.982 5.982 0 0 0 1.546-3.88 5.988 5.988 0 0 0-1.76-4.396l-9.838-9.84c-.063-.068-.082-.083-.133-.16a1.003 1.003 0 0 1-.094-.904 1.01 1.01 0 0 1 1.192-.608c.135.036.262.1.37.19.028.02.052.046.08.07 3.303 3.304 6.63 6.588 9.912 9.914a7.986 7.986 0 0 1 2.16 6.93 8.01 8.01 0 0 1-.897 2.56 8.065 8.065 0 0 1-3.807 3.45 8.034 8.034 0 0 1-5.934.18 7.974 7.974 0 0 1-2.85-1.792c-4.762-4.702-9.552-9.38-14.196-14.198a6.06 6.06 0 0 1-1.503-5.577A6.07 6.07 0 0 1 4.235.837 6.075 6.075 0 0 1 8.78.505a6.032 6.032 0 0 1 2.307 1.373c4.592 4.42 9.07 8.956 13.52 13.518a4.042 4.042 0 0 1-1.202 6.445 4.064 4.064 0 0 1-3 .183 4.08 4.08 0 0 1-1.517-.91A693.256 693.256 0 0 1 6.385 8.612a2.572 2.572 0 0 1-.526-.838 2.504 2.504 0 0 1 1.163-3.09 2.555 2.555 0 0 1 1.3-.29z" fill-rule="evenodd"/></symbol><symbol viewBox="0 0 31 27" id="svg-category-supplies-and-materials"><title>:: office supplies</title><path d="M8.323 4.393a2.53 2.53 0 0 1 1.638.724l9.745 9.745c.024.026.048.05.07.078a1 1 0 0 1 .157.987c-.14.365-.49.62-.882.64-.21.012-.42-.045-.596-.16-.078-.05-.093-.07-.162-.13-3.26-3.26-6.25-6.81-9.777-9.774a.505.505 0 0 0-.194-.098.507.507 0 0 0-.62.462.508.508 0 0 0 .136.367c4.088 4.2 8.237 8.338 12.43 12.43.223.207.48.365.768.46a2.018 2.018 0 0 0 1.19.03 2.056 2.056 0 0 0 1.49-1.82 2.047 2.047 0 0 0-.557-1.56c-4.426-4.538-8.88-9.05-13.448-13.447a4.09 4.09 0 0 0-1.543-.918 4.07 4.07 0 0 0-3.09.243 4.067 4.067 0 0 0-2.184 4.115A4.058 4.058 0 0 0 4.013 9.1c4.692 4.75 9.355 9.532 14.165 14.162.53.497 1.138.902 1.81 1.184a6.05 6.05 0 0 0 3.406.37 5.988 5.988 0 0 0 3.387-1.89 5.982 5.982 0 0 0 1.546-3.88 5.988 5.988 0 0 0-1.76-4.396l-9.838-9.84c-.063-.068-.082-.083-.133-.16a1.003 1.003 0 0 1-.094-.904 1.01 1.01 0 0 1 1.192-.608c.135.036.262.1.37.19.028.02.052.046.08.07 3.303 3.304 6.63 6.588 9.912 9.914a7.986 7.986 0 0 1 2.16 6.93 8.01 8.01 0 0 1-.897 2.56 8.065 8.065 0 0 1-3.807 3.45 8.034 8.034 0 0 1-5.934.18 7.974 7.974 0 0 1-2.85-1.792c-4.762-4.702-9.552-9.38-14.196-14.198a6.06 6.06 0 0 1-1.503-5.577A6.07 6.07 0 0 1 4.235.837 6.075 6.075 0 0 1 8.78.505a6.032 6.032 0 0 1 2.307 1.373c4.592 4.42 9.07 8.956 13.52 13.518a4.042 4.042 0 0 1-1.202 6.445 4.064 4.064 0 0 1-3 .183 4.08 4.08 0 0 1-1.517-.91A693.256 693.256 0 0 1 6.385 8.612a2.572 2.572 0 0 1-.526-.838 2.504 2.504 0 0 1 1.163-3.09 2.555 2.555 0 0 1 1.3-.29z" fill-rule="evenodd"/></symbol><symbol viewBox="0 0 47 41" id="svg-category-team"><title>:: team2</title><path d="M36.487 19.533a6.365 6.365 0 0 1-.942-.29 6.555 6.555 0 0 1-3.45-3.17 6.5 6.5 0 0 1-.59-3.968c.11-.66.32-1.3.625-1.896a6.575 6.575 0 0 1 2.908-2.873 6.465 6.465 0 0 1 2.98-.68 6.477 6.477 0 0 1 2.67.61 6.57 6.57 0 0 1 2.978 2.803 6.482 6.482 0 0 1 .735 3.936 6.476 6.476 0 0 1-.556 1.925 6.544 6.544 0 0 1-3.372 3.252c-.36.153-.732.272-1.112.356a9.114 9.114 0 0 1 4.815 2.39 9.12 9.12 0 0 1 2.293 3.52 9.18 9.18 0 0 1 .53 2.953c.02 2.867.002 5.734.002 8.6a1 1 0 0 1-1.987.16c-.012-.07-.01-.09-.013-.16 0-2.888.05-5.776-.002-8.663a7.088 7.088 0 0 0-6.042-6.837 7.122 7.122 0 0 0-3.276.28 7.242 7.242 0 0 0-1.995 1.035l-.067.045a1.01 1.01 0 0 1-.508.148 10.6 10.6 0 0 1 .78 3.852c.027 4.38 0 8.76 0 13.14-.003.082 0 .103-.016.184-.04.212-.15.41-.31.555a1.01 1.01 0 0 1-1.347 0 1.006 1.006 0 0 1-.322-.648c-.003-.03-.003-.06-.004-.092 0-4.372.027-8.743 0-13.115a8.523 8.523 0 0 0-1.803-5.144 8.54 8.54 0 0 0-1.913-1.8 8.59 8.59 0 0 0-5.146-1.487 8.543 8.543 0 0 0-8.225 8.432c-.028 4.372 0 8.743 0 13.115-.005.082-.003.103-.018.184-.04.212-.15.41-.31.555a1.01 1.01 0 0 1-1.347 0 1.006 1.006 0 0 1-.322-.648c-.003-.03-.003-.06-.004-.092 0-4.38-.027-8.76 0-13.14a10.6 10.6 0 0 1 .808-3.92 1.035 1.035 0 0 1-.13-.04c-.065-.028-.08-.04-.143-.073-.14-.093-.275-.192-.416-.283a7.224 7.224 0 0 0-1.96-.872 7.096 7.096 0 0 0-8.896 5.88c-.038.29-.058.58-.063.873-.017 2.86 0 5.717 0 8.575-.003.07 0 .09-.013.16a.998.998 0 0 1-.294.56 1.008 1.008 0 0 1-1.386 0A1 1 0 0 1 0 37c0-2.866-.017-5.733 0-8.6a9.125 9.125 0 0 1 .53-2.953 9.125 9.125 0 0 1 2.054-3.282 9.128 9.128 0 0 1 5.07-2.63 6.514 6.514 0 0 1-5.08-5.37 6.54 6.54 0 0 1 .014-2.057c.1-.606.287-1.196.554-1.75a6.56 6.56 0 0 1 2.97-3.005 6.48 6.48 0 0 1 3.876-.6 6.482 6.482 0 0 1 1.76.532 6.556 6.556 0 0 1 3.004 2.863 6.492 6.492 0 0 1-1.212 7.68 6.52 6.52 0 0 1-3.118 1.692 9.14 9.14 0 0 1 4.017 1.64l.064.05.016.015c.373-.572.8-1.107 1.278-1.596a10.582 10.582 0 0 1 4.114-2.608 10.58 10.58 0 0 1 3.43-.575h.136a10.58 10.58 0 0 1 3.303.574 10.558 10.558 0 0 1 5.512 4.39c.114-.153.273-.258.428-.366a9.12 9.12 0 0 1 3.766-1.513zm-9.423 5.5c.705-.586 1.406-1.18 2.16-1.704a.55.55 0 0 1 .237-.083c.022 0 .043-.002.064 0a.548.548 0 0 1 .165.035.51.51 0 0 1 .31.442c.01.44.024.882.018 1.323l.513.014a.51.51 0 0 1 .468.468c.042 1.292.04 2.585 0 3.876a.523.523 0 0 1-.196.368 44.43 44.43 0 0 1-2.34 1.56.512.512 0 0 1-.5 0 44.43 44.43 0 0 1-2.34-1.56.523.523 0 0 1-.197-.368 62.58 62.58 0 0 1 0-3.875.51.51 0 0 1 .468-.468c.39-.013.78-.022 1.17-.028zM29.5 26.06c-.766.017-1.536.047-2.302 0H29.5zm-3.076 0v3.046l1.788 1.192L30 29.106V26.06h-3.576zm2.266-1.034l.31.003v-.25l-.31.246zm9.186-16.368c-.64.012-1.27.15-1.85.422a4.56 4.56 0 0 0-2.038 1.897 4.476 4.476 0 0 0-.48 1.29 4.544 4.544 0 0 0-.048 1.542 4.536 4.536 0 0 0 2.768 3.553 4.52 4.52 0 0 0 5.68-6.338 4.566 4.566 0 0 0-2.065-1.945c-.58-.27-1.21-.41-1.85-.422h-.117zm-28.934.02a4.545 4.545 0 0 0-1.842.42 4.545 4.545 0 0 0-2.083 1.984 4.474 4.474 0 0 0-.473 2.725c.064.457.2.903.4 1.32A4.518 4.518 0 0 0 7.3 17.344a4.504 4.504 0 0 0 4.804-.91c.392-.376.717-.82.952-1.31.2-.415.336-.86.4-1.318a4.474 4.474 0 0 0-.473-2.725A4.545 4.545 0 0 0 10.9 9.097a4.545 4.545 0 0 0-1.842-.42h-.116zM23.526 0a7.953 7.953 0 0 1 3.277.747 8.075 8.075 0 0 1 3.744 3.61c.36.7.613 1.454.75 2.228.15.835.166 1.693.048 2.532a7.966 7.966 0 0 1-2.403 4.673 8.023 8.023 0 0 1-2.496 1.618 8.012 8.012 0 0 1-6.046 0 8.04 8.04 0 0 1-4.187-3.94 7.966 7.966 0 0 1-.712-2.35 8.008 8.008 0 0 1 .798-4.76 8.075 8.075 0 0 1 3.745-3.61A7.962 7.962 0 0 1 23.32 0h.206zm-.18 2a5.956 5.956 0 0 0-4.264 1.86 6.03 6.03 0 0 0-1.188 1.806 6.043 6.043 0 0 0-.3 3.76c.127.523.326 1.027.588 1.495a6.066 6.066 0 0 0 2.907 2.61 6.01 6.01 0 0 0 4.533.055 6.03 6.03 0 0 0 3.177-2.92 5.99 5.99 0 0 0 .53-3.727 5.96 5.96 0 0 0-.563-1.668 6.067 6.067 0 0 0-2.68-2.647 5.966 5.966 0 0 0-2.432-.62c-.103-.002-.206-.003-.31-.002z" fill-rule="evenodd"/></symbol><symbol viewBox="0 0 47 36" id="svg-category-travel"><title>:: travel</title><path d="M34.378.483h.142c.56.006 1.12.03 1.677.066l9.875.714c.04.006.082.01.123.017a1.01 1.01 0 0 1 .742 1.33c-.015.04-.034.077-.05.114-1.57 3.01-3.13 6.028-4.714 9.032a25.694 25.694 0 0 1-7.342 8.528c-.793.59-1.62 1.127-2.473 1.624l-7.01 4.046c-1.774 3.168-3.727 6.232-5.588 9.35a1.05 1.05 0 0 1-.29.31 1.003 1.003 0 0 1-.563.176h-.01a.992.992 0 0 1-.83-.446c-.963-1.557-1.832-3.17-2.747-4.755a.91.91 0 0 1-.082-.184l-.01-.035-.005-.013c-.078-.28-.077-.28-.157-.56a37.536 37.536 0 0 0-1.013-2.99 35.766 35.766 0 0 0-2.504-5.162 38.16 38.16 0 0 0-3.363-4.815 44.01 44.01 0 0 0-2.222-2.505l-.02-.024-.036-.04-.023-.027c-.004-.006-.008-.012-.01-.018a.235.235 0 0 1-.02-.025l-.014-.023c-.008-.01-.015-.023-.022-.034-.95-1.538-1.808-3.134-2.712-4.7a1.058 1.058 0 0 1-.125-.368c-.053-.393.14-.79.48-.993.134-.08.28-.12.43-.137 3.644-.17 7.293-.23 10.94-.17 2.293-1.325 4.588-2.65 6.89-3.963a25.683 25.683 0 0 1 4.952-2.146 1 1 0 0 1 .282-.123c.064-.017.08-.018.147-.027.045-.003.063-.005.085-.005A25.638 25.638 0 0 1 34.04.485H34.38zM17.555 30.455l1.363 2.362 2.867-4.804-4.23 2.442zm9.64-26.866a23.766 23.766 0 0 0-4.683 2.065l-6.9 3.982c-2.398 1.49-4.877 2.843-7.33 4.24.144.158.287.32.43.48.21.24.21.24.416.48.475.56.94 1.128 1.387 1.71a39.67 39.67 0 0 1 2.76 4.085 37.695 37.695 0 0 1 3.508 7.926c2.416-1.445 4.892-2.79 7.33-4.2.038-.02.076-.038.114-.055l.006-.002c2.44-1.404 4.876-2.81 7.306-4.23a23.77 23.77 0 0 0 4.466-3.405l.003-.306a17.687 17.687 0 0 0-.055-1.324 14.19 14.19 0 0 0-.442-2.565 11.906 11.906 0 0 0-1.848-3.89c-1.017-1.408-2.332-2.576-3.78-3.522a20.92 20.92 0 0 0-2.69-1.47zM11.47 24.903a1.01 1.01 0 0 1 .71.303c.29.3.363.765.177 1.14-.082.164-.205.295-.355.397-.88.54-1.776 1.056-2.684 1.55-.14.068-.29.108-.448.11H8.85a1.008 1.008 0 0 1-.97-.822.99.99 0 0 1 .44-1.018c.883-.54 1.78-1.057 2.686-1.55a1.114 1.114 0 0 1 .457-.11h.01zm.163.91c-.006 0-.062.03-.178.093-.862.498-1.738.974-2.587 1.494l.042-.022c.786-.43 2.744-1.557 2.723-1.563zm-2.16-4.37h.055c.18.017.353.072.504.176.343.238.505.678.397 1.082a1.007 1.007 0 0 1-.423.58c-1.45.887-2.923 1.738-4.416 2.55a1.04 1.04 0 0 1-.422.11H5.13a.99.99 0 0 1-.604-.206 1.008 1.008 0 0 1-.31-1.192c.08-.183.212-.33.376-.44 1.45-.887 2.924-1.74 4.417-2.55a1.108 1.108 0 0 1 .455-.11h.01zm-2.003-3.468h.055c.182.017.354.072.505.177a1.01 1.01 0 0 1 .284 1.345 1.05 1.05 0 0 1-.31.317c-2.02 1.234-4.07 2.42-6.15 3.55a1.052 1.052 0 0 1-.422.11h-.038a1.01 1.01 0 0 1-.972-.78c-.022-.094-.03-.192-.022-.29a1.01 1.01 0 0 1 .078-.324c.08-.184.212-.33.377-.444 2.02-1.235 4.07-2.42 6.15-3.55.12-.06.24-.093.374-.108l.083-.002h.01zM27.048 7.96h.097a5.044 5.044 0 0 1 2.084.505 5.005 5.005 0 0 1 2.422 2.566c.192.457.315.94.363 1.433a5.04 5.04 0 0 1-.652 3.008 5.014 5.014 0 0 1-4.28 2.49h-.03a5.042 5.042 0 0 1-3.125-1.086 5.024 5.024 0 0 1-1.633-2.336 5 5 0 0 1 4.612-6.577l.12-.002h.024zm-.038 2h-.055a3.01 3.01 0 0 0-2.75 2.016 3.013 3.013 0 0 0-.014 1.93 3.01 3.01 0 0 0 .98 1.402 3.025 3.025 0 0 0 1.873.652h.018c.34-.002.676-.062.994-.177.335-.12.648-.302.92-.53.207-.175.39-.377.54-.6a3.03 3.03 0 0 0 .37-2.638 3.003 3.003 0 0 0-1.402-1.684 3.11 3.11 0 0 0-1.454-.37h-.018zm.766.542a.494.494 0 0 1 .365.2c.134.182.13.438-.013.613a.503.503 0 0 1-.3.177c-.048.01-.098.008-.148.01a2.794 2.794 0 0 0-.313.034c-.182.035-.36.09-.524.174a1.51 1.51 0 0 0-.49.402c-.273.347-.37.798-.35 1.233.008.185.036.37.08.55.02.092.054.182.074.275a.526.526 0 0 1-.034.297.505.505 0 0 1-.77.188.51.51 0 0 1-.158-.224A4.023 4.023 0 0 1 25 13.21c.004-.615.185-1.23.57-1.718.116-.15.25-.284.4-.402.172-.137.362-.25.564-.34a3.108 3.108 0 0 1 1.013-.242c.076-.004.153-.01.23-.006zm6.552-8.02l-.263.002a23.52 23.52 0 0 0-3.935.377c.65.38 1.277.793 1.88 1.245a16.14 16.14 0 0 1 2.447 2.26c.842.965 1.555 2.04 2.105 3.195.43.905.76 1.856.995 2.83.172.717.29 1.446.364 2.18a23.95 23.95 0 0 0 1.756-2.478c.294-.48.57-.968.83-1.465L44.41 3.15c-2.86-.208-5.717-.427-8.576-.62-.22-.014-.22-.014-.443-.024-.294-.012-.588-.02-.884-.023h-.178zM5.69 9.908l1.365 2.362c1.407-.814 2.813-1.63 4.22-2.443l-5.584.08z" fill-rule="evenodd"/></symbol><symbol viewBox="0 0 31 32" id="svg-category-web-services"><title>:: web services@2x</title><path d="M4.125 27.347c.307.327.632.636.974.926 1.05.892 2.25 1.59 3.518 2.13 1.13.48 2.31.838 3.513 1.09.443.093.888.172 1.335.238.57.085 1.142.148 1.716.193.715.056 1.43.084 2.147.088 1.28.008 2.564-.067 3.832-.255a18.813 18.813 0 0 0 3.236-.767 14.88 14.88 0 0 0 3.693-1.824c.728-.5 1.4-1.076 2.016-1.71.052-.054.053-.053.103-.11a1.172 1.172 0 0 0-.338-1.757 1.062 1.062 0 0 0-.556-.14c-.035.003-.07.003-.103.01a.598.598 0 0 0-.345.187l-.24.268a10.896 10.896 0 0 1-2.534 2.01c-1.952 1.13-4.188 1.673-6.416 1.886a25.9 25.9 0 0 1-2.715.11c-1.735-.018-3.473-.21-5.154-.647-1.422-.37-2.816-.906-4.055-1.702a10.738 10.738 0 0 1-3.33-3.378 12.428 12.428 0 0 1-1.542-3.61c-.318-1.276-.422-2.593-.368-3.907.07-1.706.41-3.397.996-5 .355-.97.788-1.913 1.328-2.79.487-.793 1.06-1.53 1.714-2.194 1.396-1.415 3.134-2.468 5.016-3.097 1.553-.52 3.188-.76 4.822-.815 1.11-.036 2.227.007 3.327.168 1.523.222 3.023.677 4.358 1.454a10.008 10.008 0 0 1 2.204 1.748 9.658 9.658 0 0 1 1.842 2.71c.415.925.67 1.915.778 2.922a10.64 10.64 0 0 1-.15 3.278c-.22 1.05-.602 2.06-1.112 3.002-.445.823-.99 1.59-1.644 2.262-.447.46-.944.868-1.472 1.23-.454.31-.95.594-1.49.72-.233.055-.486.087-.722.037a1.147 1.147 0 0 1-.81-.682 1.656 1.656 0 0 1-.112-.7c.005-.154.026-.307.05-.46.038-.26.088-.52.138-.78.657-3.25 1.41-6.483 2.048-9.738a1.74 1.74 0 0 0-.074-.88 1.714 1.714 0 0 0-.78-.91 1.705 1.705 0 0 0-1.504-.058c-.37.168-.672.472-.836.845-.07.156-.104.318-.14.484l-.024.075a.572.572 0 0 1-.135.19c-.16.142-.4.165-.583.056a.564.564 0 0 1-.168-.16 4.395 4.395 0 0 0-.995-1.13 4.105 4.105 0 0 0-1.356-.702 5.59 5.59 0 0 0-1.478-.222 7.315 7.315 0 0 0-2.604.397 6.994 6.994 0 0 0-1.835.977c-.878.647-1.605 1.475-2.216 2.374A12.332 12.332 0 0 0 7.4 14.26c-.33.975-.53 1.99-.603 3.015-.083 1.148-.03 2.322.32 3.425.195.61.482 1.192.86 1.71a5.78 5.78 0 0 0 2.073 1.762c.76.377 1.6.56 2.445.587a6.046 6.046 0 0 0 1.887-.225 5.832 5.832 0 0 0 1.683-.807c.32-.222.62-.473.902-.743l.062-.05c.06-.036.074-.05.142-.07a.504.504 0 0 1 .51.146c.05.054.054.073.088.135.036.105.062.212.098.317.066.18.15.35.262.505a1.66 1.66 0 0 0 .475.44c.15.09.31.156.478.205.24.07.49.108.738.13a7.357 7.357 0 0 0 .69.02c.154-.003.307-.008.46-.016a10.052 10.052 0 0 0 2.024-.313 9.125 9.125 0 0 0 1.97-.774c1.14-.61 2.136-1.46 2.976-2.438 1.238-1.443 2.183-3.14 2.662-4.985.28-1.08.402-2.2.385-3.316a13.038 13.038 0 0 0-.417-3.113c-.236-.9-.574-1.77-1.004-2.594a11.64 11.64 0 0 0-1.05-1.668 10.828 10.828 0 0 0-1.544-1.638c-1.7-1.467-3.827-2.398-6.013-2.86a18.273 18.273 0 0 0-3.396-.37c-.18-.004-.36-.005-.54-.004-1.45.014-2.898.152-4.316.467-1.79.397-3.533 1.07-5.09 2.042-.662.414-1.29.883-1.87 1.402-1.414 1.26-2.54 2.808-3.396 4.492A17.493 17.493 0 0 0 .95 12.834a18.028 18.028 0 0 0-.508 4.02 17.06 17.06 0 0 0 .39 3.947c.243 1.09.6 2.155 1.07 3.17.26.565.55 1.118.883 1.645l1.34 1.732zM15.86 9.562c.342.012.678.06 1.004.166a3.255 3.255 0 0 1 1.245.748c.187.178.357.374.503.588.56.818.748 1.83.762 2.807a10.42 10.42 0 0 1-.148 1.86c-.082.492-.194.98-.33 1.46a15.95 15.95 0 0 1-.278.878c-.31.89-.696 1.772-1.253 2.538a6.24 6.24 0 0 1-.55.653c-.24.25-.502.48-.788.676-.19.128-.39.24-.596.34a4.13 4.13 0 0 1-1.806.41 3.422 3.422 0 0 1-.975-.14 3.1 3.1 0 0 1-.723-.33 3.522 3.522 0 0 1-1.066-1.035 4.097 4.097 0 0 1-.51-1.162 7.217 7.217 0 0 1-.232-1.712c-.016-.616.03-1.23.122-1.84.068-.45.16-.897.27-1.34.193-.782.428-1.558.775-2.287.21-.443.462-.87.76-1.26a5.58 5.58 0 0 1 1.575-1.42c.295-.176.61-.32.94-.42.357-.11.724-.164 1.098-.178h.198z" fill-rule="evenodd"/></symbol><symbol viewBox="0 0 160 116" id="svg-icon-donation-done"><title>:: icon (donation done)</title><g fill-rule="evenodd"><g transform="translate(34.157 4.518)"><path d="M55.37 26.06h22.293c.72 0 1.438-.54 1.438-1.438 0-.9-.538-1.44-1.437-1.44H55.37c-.718 0-1.437.54-1.437 1.44 0 .9.72 1.44 1.438 1.44zM55.37 38.473h22.293c.72 0 1.438-.54 1.438-1.44 0-.9-.538-1.438-1.437-1.438H55.37c-.718 0-1.437.54-1.437 1.44 0 .898.72 1.438 1.438 1.438zM55.37 51.064h22.293c.72 0 1.438-.54 1.438-1.44 0-.898-.538-1.438-1.437-1.438H55.37c-.718 0-1.437.54-1.437 1.44 0 .898.72 1.438 1.438 1.438z"/><path d="M99.775 39.552h-8.988V8.612c0-.54-.18-.898-.54-1.258l-6.292-6.296c-.72-.72-1.798-.72-2.517 0l-5.034 5.037-5.033-5.037c-.718-.72-1.797-.72-2.516 0L63.82 6.095l-5.033-5.037c-.72-.72-1.798-.72-2.517 0l-5.034 5.037-5.034-5.037c-.72-.72-1.798-.72-2.517 0l-5.033 5.037-5.034-5.037c-.72-.72-1.798-.72-2.517 0l-5.033 5.037-5.033-5.037c-.72-.72-1.798-.72-2.517 0l-6.292 6.296c-.36.36-.54.72-.54 1.26V39.55H2.697c-1.08 0-1.798.72-1.798 1.8v67.633c0 1.08.718 1.8 1.797 1.8h96.9c1.077 0 1.796-.72 1.796-1.8V41.35c.18-.9-.72-1.798-1.618-1.798zm-8.988 3.597h4.494l-4.493 3.597V43.15zM15.28 9.33l4.495-4.497 5.034 5.037c.718.72 1.797.72 2.516 0l5.034-5.037 5.033 5.037c.72.72 1.798.72 2.517 0l5.034-5.037 5.034 5.037c.72.72 1.797.72 2.516 0l5.034-5.037 5.034 5.037c.72.72 1.798.72 2.517 0l5.032-5.037 5.034 5.037c.72.72 1.798.72 2.517 0l5.034-5.037 4.494 4.497v40.113L72.81 60.777H29.662L15.28 49.445V9.332zm54.113 54.144L56.99 73.37l-.36.36-.36-.36-4.135-3.06c-.54-.36-1.26-.36-1.618 0l-3.955 3.06-.36.36-.36-.36-12.404-9.894h35.955zM11.685 43.15v3.597L7.19 43.15h4.495zm-7.01 1.438l39.19 30.76-39.19 30.58v-61.34zm2.696 62.598L50.877 73.19l.36-.36.36.36 43.685 33.996H7.37zm90.608-1.26l-38.472-29.86-.9-.718 39.372-30.94v61.52z"/><path d="M35.236 50.524c0 1.08.9 1.98 1.977 1.98 1.08 0 1.978-.9 1.978-1.98v-1.978c3.956-.36 6.832-2.34 7.73-5.397.18-.72.36-1.44.36-2.16 0-.54 0-1.078-.18-1.438-.538-3.418-3.055-5.396-8.27-6.835V26.96c1.08.18 2.16.72 3.237 1.26.36.18.9.36 1.26.36 1.437 0 2.516-1.08 2.516-2.52 0-1.078-.72-1.798-1.44-2.337-1.616-.9-3.414-1.44-5.572-1.8v-.54c0-1.078-.897-1.977-1.976-1.977-1.08 0-1.978.9-1.978 1.978v.54c-4.854.54-8.09 3.238-8.09 7.555 0 4.496 2.697 6.654 8.27 8.093V43.69l-1.618-.54c-1.078-.36-2.157-.9-3.416-1.62-.54-.36-1.078-.54-1.438-.54-1.258 0-2.337.9-2.517 2.16v.36c0 1.078.54 1.798 1.26 2.338a19.056 19.056 0 0 0 7.55 2.698v1.978h.36zm3.775-7.375V38.47c.9.36 1.62.72 1.98 1.08.538.54.718 1.08.718 1.8 0 .898-.36 1.438-.9 1.797-.36.36-1.078.54-1.797.72v-.72zM32.9 29.12c0-1.26.718-2.16 2.696-2.34v5.217c-2.158-.9-2.697-1.8-2.697-2.878z"/></g><g fill="currentColor"><path d="M139.146 17.088c-1.798 0-3.056 1.44-3.056 3.058 0 1.62 1.438 3.058 3.056 3.058s3.056-1.44 3.056-3.058c0-1.62-1.258-3.058-3.056-3.058zm0 4.317a1.23 1.23 0 0 1-1.258-1.26c0-.718.54-1.258 1.258-1.258.72 0 1.258.54 1.258 1.26s-.54 1.258-1.258 1.258zM19.236 11.152H15.64V7.555c0-.54-.36-.9-.898-.9-.54 0-.9.36-.9.9v3.597h-3.595c-.54 0-.9.36-.9.9s.36.9.9.9h3.596v3.597c0 .538.36.898.9.898.538 0 .897-.36.897-.9v-3.597h3.596c.54 0 .9-.36.9-.898 0-.54-.36-.9-.9-.9zM23.91 31.3c-1.258 0-2.337 1.078-2.337 2.337 0 1.26 1.08 2.34 2.337 2.34 1.26 0 2.337-1.08 2.337-2.34 0-1.26-1.078-2.338-2.337-2.338zm0 2.877c-.36 0-.54-.18-.54-.54 0-.36.18-.54.54-.54.36 0 .54.18.54.54 0 .36-.36.54-.54.54zM158.202 42.09h-2.337v-2.337c0-.54-.36-.9-.9-.9-.538 0-.898.36-.898.9v2.338h-2.337c-.54 0-.9.36-.9.9s.36.9.9.9h2.337v2.34c0 .538.36.898.9.898s.898-.36.898-.9V43.89h2.337c.54 0 .9-.36.9-.9s-.36-.9-.9-.9z"/><ellipse cx="1.798" cy="54.143" rx="1.798" ry="1.799"/><ellipse cx="154.067" cy="1.799" rx="1.798" ry="1.799"/></g></g></symbol><symbol viewBox="0 0 160 116" id="svg-icon-donation-done-euro"><title>:: icon (donation done)</title><g fill="none" fill-rule="evenodd"><g transform="translate(34.157 4.518)"><path d="M55.37 26.06h22.293c.72 0 1.438-.54 1.438-1.438 0-.9-.538-1.44-1.437-1.44H55.37c-.718 0-1.437.54-1.437 1.44 0 .9.72 1.44 1.438 1.44zM55.37 38.473h22.293c.72 0 1.438-.54 1.438-1.44 0-.9-.538-1.438-1.437-1.438H55.37c-.718 0-1.437.54-1.437 1.44 0 .898.72 1.438 1.438 1.438zM55.37 51.064h22.293c.72 0 1.438-.54 1.438-1.44 0-.898-.538-1.438-1.437-1.438H55.37c-.718 0-1.437.54-1.437 1.44 0 .898.72 1.438 1.438 1.438z" fill="#5CAAE2"/><path d="M99.775 39.552h-8.988V8.612c0-.54-.18-.898-.54-1.258l-6.292-6.296c-.72-.72-1.798-.72-2.517 0l-5.034 5.037-5.033-5.037c-.718-.72-1.797-.72-2.516 0L63.82 6.095l-5.033-5.037c-.72-.72-1.798-.72-2.517 0l-5.034 5.037-5.034-5.037c-.72-.72-1.798-.72-2.517 0l-5.033 5.037-5.034-5.037c-.72-.72-1.798-.72-2.517 0l-5.033 5.037-5.033-5.037c-.72-.72-1.798-.72-2.517 0l-6.292 6.296c-.36.36-.54.72-.54 1.26V39.55H2.697c-1.08 0-1.798.72-1.798 1.8v67.633c0 1.08.718 1.8 1.797 1.8h96.9c1.077 0 1.796-.72 1.796-1.8V41.35c.18-.9-.72-1.798-1.618-1.798zm-8.988 3.597h4.494l-4.493 3.597V43.15zM15.28 9.33l4.495-4.497 5.034 5.037c.718.72 1.797.72 2.516 0l5.034-5.037 5.033 5.037c.72.72 1.798.72 2.517 0l5.034-5.037 5.034 5.037c.72.72 1.797.72 2.516 0l5.034-5.037 5.034 5.037c.72.72 1.798.72 2.517 0l5.032-5.037 5.034 5.037c.72.72 1.798.72 2.517 0l5.034-5.037 4.494 4.497v40.113L72.81 60.777H29.662L15.28 49.445V9.332zm54.113 54.144L56.99 73.37l-.36.36-.36-.36-4.135-3.06c-.54-.36-1.26-.36-1.618 0l-3.955 3.06-.36.36-.36-.36-12.404-9.894h35.955zM11.685 43.15v3.597L7.19 43.15h4.495zm-7.01 1.438l39.19 30.76-39.19 30.58v-61.34zm2.696 62.598L50.877 73.19l.36-.36.36.36 43.685 33.996H7.37zm90.608-1.26l-38.472-29.86-.9-.718 39.372-30.94v61.52z" fill="#5CAAE2"/><path d="M32.455 39.736c.444 4.557 1.904 6.836 4.38 6.836.927 0 1.774-.222 2.542-.666.768-.445 1.508-1.486 2.22-3.123.456-1.067.85-1.73 1.18-1.99.33-.26.685-.39 1.066-.39.76 0 1.355.218 1.78.656.426.437.638 1.05.638 1.837 0 1.866-.913 3.59-2.74 5.17-1.83 1.58-4.044 2.37-6.647 2.37-2.437 0-4.564-.885-6.38-2.656-1.815-1.77-2.9-4.45-3.256-8.044H24.82c-.23 0-.344-.165-.344-.495 0-.317.12-.717.362-1.2.24-.48.444-.723.61-.723h1.637v-.685c0-.56.025-1.365.076-2.42h-2.34c-.23 0-.344-.157-.344-.475 0-.33.12-.736.362-1.218.24-.484.444-.725.61-.725h1.904c.825-6.614 3.948-9.92 9.37-9.92 2.385 0 4.442.614 6.17 1.846 1.725 1.232 2.588 2.762 2.588 4.59 0 .622-.203 1.15-.61 1.58-.405.432-.9.648-1.484.648-.648 0-1.12-.165-1.42-.495-.297-.33-.592-.838-.884-1.523-.37-.902-.807-1.59-1.314-2.067-.508-.476-1.372-.714-2.59-.714-1.397 0-2.473.488-3.228 1.466-.755.977-1.24 2.507-1.457 4.59h6.132c.254 0 .38.164.38.494 0 .356-.117.765-.35 1.228-.236.464-.443.695-.62.695H32.34l-.037 1.867c0 .57.012.983.038 1.237h6.285c.254 0 .38.16.38.476 0 .37-.117.784-.35 1.248-.236.464-.443.696-.62.696h-5.58z" fill="#5CAAE1"/></g><g fill="#75CC1F"><path d="M139.146 17.088c-1.798 0-3.056 1.44-3.056 3.058 0 1.62 1.438 3.058 3.056 3.058s3.056-1.44 3.056-3.058c0-1.62-1.258-3.058-3.056-3.058zm0 4.317a1.23 1.23 0 0 1-1.258-1.26c0-.718.54-1.258 1.258-1.258.72 0 1.258.54 1.258 1.26s-.54 1.258-1.258 1.258zM19.236 11.152H15.64V7.555c0-.54-.36-.9-.898-.9-.54 0-.9.36-.9.9v3.597h-3.595c-.54 0-.9.36-.9.9s.36.9.9.9h3.596v3.597c0 .538.36.898.9.898.538 0 .897-.36.897-.9v-3.597h3.596c.54 0 .9-.36.9-.898 0-.54-.36-.9-.9-.9zM23.91 31.3c-1.258 0-2.337 1.078-2.337 2.337 0 1.26 1.08 2.34 2.337 2.34 1.26 0 2.337-1.08 2.337-2.34 0-1.26-1.078-2.338-2.337-2.338zm0 2.877c-.36 0-.54-.18-.54-.54 0-.36.18-.54.54-.54.36 0 .54.18.54.54 0 .36-.36.54-.54.54zM158.202 42.09h-2.337v-2.337c0-.54-.36-.9-.9-.9-.538 0-.898.36-.898.9v2.338h-2.337c-.54 0-.9.36-.9.9s.36.9.9.9h2.337v2.34c0 .538.36.898.9.898s.898-.36.898-.9V43.89h2.337c.54 0 .9-.36.9-.9s-.36-.9-.9-.9z"/><ellipse cx="1.798" cy="54.143" rx="1.798" ry="1.799"/><ellipse cx="154.067" cy="1.799" rx="1.798" ry="1.799"/></g></g></symbol><symbol viewBox="0 0 17 17" id="svg-isotype"><title>:: symbol</title><g fill-rule="evenodd"><path d="M13.44 8.84c0 1.026-.314 2.008-.85 2.856l2.143 2.143a8.26 8.26 0 0 0 1.652-4.956c0-1.875-.625-3.572-1.696-4.955l-2.1 2.097a5.09 5.09 0 0 1 .85 2.812z"/><path d="M13.44 8.84c0 1.026-.314 2.008-.85 2.856l2.143 2.143a8.26 8.26 0 0 0 1.652-4.956c0-1.875-.625-3.572-1.696-4.955l-2.1 2.097a5.09 5.09 0 0 1 .85 2.812z" fill-opacity=".46" fill="#FFF"/><path d="M2.902 8.84A5.278 5.278 0 0 1 8.17 3.57c1.072 0 2.054.314 2.858.85l2.098-2.1A8.263 8.263 0 0 0 8.17.67C3.66.67 0 4.33 0 8.84c0 4.508 3.66 8.17 8.17 8.17a8.017 8.017 0 0 0 4.956-1.698l-2.143-2.142c-.76.625-1.74.937-2.813.937A5.278 5.278 0 0 1 2.902 8.84z"/></g></symbol><symbol viewBox="0 0 196 25" id="svg-logo"><title>:: logo</title><g fill="none" fill-rule="evenodd"><g transform="translate(24.945)" fill="#FFF"><path d="M164.402 16.786a4.252 4.252 0 0 1-3.214-1.43c-.045-.088-.045-.177.044-.222l7.5-3.17 2.19-.937c.088-.045.088-.09.088-.134-.714-3.08-3.527-5.357-6.83-5.223-3.484.134-6.386 2.946-6.52 6.428a6.773 6.773 0 0 0 6.787 7.098c2.813 0 5.223-1.74 6.25-4.196.045-.09 0-.18-.09-.18l-2.187-.4c-.044 0-.134 0-.134.09-.803 1.338-2.232 2.276-3.884 2.276zm0-8.66a4.22 4.22 0 0 1 3.215 1.472c.044.09.044.18-.045.223 0 0-7.233 3.082-7.322 3.126-.09.045-.18-.044-.18-.09V12.5c-.043-2.455 1.92-4.375 4.332-4.375zM157.348 5.893h-2.143c-.045 0-.09.045-.134.09l-3.482 10.222c-.09.224-.357.224-.446 0L147.66 5.982c0-.045-.045-.09-.134-.09h-2.143c-.09 0-.134.09-.134.18l4.42 12.857c0 .043.043.088.133.088h3.036c.043 0 .088-.045.133-.09l4.42-12.857c.09-.088.044-.177-.045-.177zM143.24 5.893h-2.188c-.09 0-.134.045-.134.134v12.857c0 .09.045.134.134.134h2.188c.09 0 .133-.045.133-.134V6.027c0-.045-.044-.134-.133-.134zM143.24 1.696h-2.188c-.09 0-.134.045-.134.134v2.188c0 .09.045.134.134.134h2.188c.09 0 .133-.045.133-.134V1.83c0-.09-.044-.134-.133-.134zM138.73 5.893h-2.455a.096.096 0 0 1-.09-.09V.224c0-.09-.044-.134-.134-.134h-2.186c-.09 0-.134.044-.134.133v5.58c0 .045-.045.09-.09.09h-2.41c-.09 0-.134.045-.134.134v2.187c0 .09.044.134.133.134h2.41c.045 0 .09.045.09.09v10.446c0 .09.044.134.134.134h2.187c.09 0 .135-.045.135-.134V8.437c0-.044.045-.09.09-.09h2.455c.09 0 .134-.043.134-.133V6.027c0-.045-.09-.134-.134-.134zM124.4 16.786c-2.68 0-4.78-2.41-4.288-5.18.268-1.517 1.786-3.08 3.304-3.392 1.652-.357 3.215.223 4.197 1.34a.136.136 0 0 0 .18 0l1.56-1.563a.136.136 0 0 0 0-.178c-1.293-1.428-3.213-2.276-5.312-2.187-3.436.18-6.294 2.99-6.472 6.43a6.773 6.773 0 0 0 6.786 7.097c1.964 0 3.75-.848 5-2.188.045-.044.045-.09 0-.134l-1.562-1.562a.136.136 0 0 0-.18 0c-.758.982-1.92 1.518-3.213 1.518zM109.8 16.786a4.252 4.252 0 0 1-3.216-1.43c-.044-.088-.044-.177.045-.222l7.5-3.17 2.187-.937c.09-.045.09-.09.09-.134-.715-3.08-3.527-5.357-6.83-5.223-3.484.134-6.386 2.946-6.52 6.428a6.773 6.773 0 0 0 6.787 7.098c2.812 0 5.223-1.74 6.25-4.196.045-.09 0-.18-.09-.18l-2.187-.4c-.044 0-.134 0-.134.09-.803 1.338-2.277 2.276-3.884 2.276zm0-8.66a4.22 4.22 0 0 1 3.214 1.472c.044.09.044.18-.045.223 0 0-7.234 3.082-7.323 3.126-.09.045-.18-.044-.18-.09V12.5c-.043-2.455 1.92-4.375 4.332-4.375zM101.182.09h-2.188c-.09 0-.134.044-.134.133v18.66c0 .09.045.135.134.135h2.188c.09 0 .134-.045.134-.134V.224c0-.09-.09-.135-.134-.135zM96.405.09h-2.188c-.09 0-.134.044-.134.133v18.66c0 .09.045.135.134.135h2.188c.09 0 .134-.045.134-.134V.224c-.046-.09-.09-.135-.135-.135zM85.69 8.125c2.41 0 4.33 1.964 4.33 4.33s-1.964 4.33-4.33 4.33c-2.367 0-4.33-1.964-4.33-4.33s1.92-4.33 4.33-4.33zm0-2.455a6.783 6.783 0 0 0-6.787 6.785 6.783 6.783 0 0 0 6.787 6.786 6.783 6.783 0 0 0 6.786-6.785A6.783 6.783 0 0 0 85.69 5.67zM73.233 16.786c-2.68 0-4.777-2.41-4.286-5.18.268-1.517 1.786-3.08 3.304-3.392 1.653-.357 3.215.223 4.198 1.34a.136.136 0 0 0 .178 0L78.19 7.99a.136.136 0 0 0 0-.178c-1.296-1.428-3.216-2.276-5.314-2.187-3.438.18-6.295 2.99-6.474 6.43a6.773 6.773 0 0 0 6.786 7.097c1.965 0 3.75-.848 5-2.188.046-.044.046-.09 0-.134l-1.562-1.562a.136.136 0 0 0-.178 0c-.76.982-1.92 1.518-3.215 1.518zM51.044 5.67c-1.43 0-3.08.893-3.84 1.964-.045.09-.223.045-.223-.045V6.026c0-.045-.044-.134-.133-.134H44.66c-.046 0-.135.045-.135.134V18.93c0 .043.045.133.134.133h2.187c.044 0 .134-.045.134-.134V12.5c0-2.455 1.653-4.196 4.02-4.196 3.124 0 4.062 2.053 4.062 4.464v6.16c0 .045.044.134.134.134h2.187c.045 0 .134-.044.134-.133v-6.162c.045-3.75-1.74-7.098-6.473-7.098zM36.623 16.786a4.252 4.252 0 0 1-3.215-1.43c-.045-.088-.045-.177.045-.222l7.5-3.17 2.188-.937c.09-.045.09-.09.09-.134-.714-3.08-3.527-5.357-6.83-5.223-3.483.134-6.385 2.946-6.52 6.428a6.773 6.773 0 0 0 6.787 7.098c2.813 0 5.224-1.74 6.25-4.196.046-.09 0-.18-.088-.18l-2.19-.4c-.044 0-.133 0-.133.09-.804 1.338-2.232 2.276-3.884 2.276zm0-8.66a4.22 4.22 0 0 1 3.214 1.472c.045.09.045.18-.044.223 0 0-7.233 3.082-7.323 3.126-.09.045-.178-.044-.178-.09V12.5c0-2.455 1.964-4.375 4.33-4.375zM21.8 5.536c-1.697.044-3.036.714-3.974 1.83-.09.09-.223.045-.223-.09v-1.25c0-.088-.045-.133-.134-.133h-2.19c-.088 0-.133.045-.133.134v18.705c0 .09.045.134.134.134h2.144c.09 0 .134-.045.134-.134v-7.366c0-.134.134-.178.224-.09.937 1.117 2.32 1.83 4.107 1.83 4.15 0 7.455-3.75 6.652-8.035-.536-3.258-3.483-5.58-6.742-5.534zm.848 11.07c-2.947.492-5.49-2.052-5-5 .312-1.785 1.74-3.258 3.527-3.526 2.947-.49 5.49 2.054 5 5-.268 1.786-1.74 3.215-3.527 3.527zM7.11 5.67a6.783 6.783 0 0 0-6.785 6.785A6.783 6.783 0 0 0 7.11 19.24a6.783 6.783 0 0 0 6.787-6.785A6.783 6.783 0 0 0 7.11 5.67zm0 2.455c2.412 0 4.332 1.964 4.332 4.33s-1.965 4.33-4.33 4.33c-2.367 0-4.332-1.964-4.332-4.33s1.965-4.33 4.33-4.33z"/></g><g transform="translate(0 3.57)"><path d="M13.44 8.84c0 1.026-.314 2.008-.85 2.856l2.143 2.143a8.26 8.26 0 0 0 1.652-4.956c0-1.875-.625-3.572-1.696-4.955l-2.1 2.097a5.09 5.09 0 0 1 .85 2.812z" fill="#B8D3F4"/><path d="M8.17 14.107A5.278 5.278 0 0 1 2.902 8.84 5.278 5.278 0 0 1 8.17 3.57c1.072 0 2.054.314 2.858.85l2.098-2.1A8.263 8.263 0 0 0 8.17.67C3.66.67 0 4.33 0 8.84c0 4.508 3.66 8.17 8.17 8.17a8.017 8.017 0 0 0 4.956-1.698l-2.143-2.142c-.76.625-1.74.937-2.813.937z" fill="#7FADF2"/></g></g></symbol><symbol viewBox="0 0 171 25" id="svg-logotype"><title>:: type</title><g transform="translate(-.055)" fill-rule="evenodd"><path d="M164.402 16.786a4.252 4.252 0 0 1-3.214-1.43c-.045-.088-.045-.177.044-.222l7.5-3.17 2.19-.937c.088-.045.088-.09.088-.134-.714-3.08-3.527-5.357-6.83-5.223-3.484.134-6.386 2.946-6.52 6.428a6.773 6.773 0 0 0 6.787 7.098c2.813 0 5.223-1.74 6.25-4.196.045-.09 0-.18-.09-.18l-2.187-.4c-.044 0-.134 0-.134.09-.803 1.338-2.232 2.276-3.884 2.276zm0-8.66a4.22 4.22 0 0 1 3.215 1.472c.044.09.044.18-.045.223 0 0-7.233 3.082-7.322 3.126-.09.045-.18-.044-.18-.09V12.5c-.043-2.455 1.92-4.375 4.332-4.375zM157.348 5.893h-2.143c-.045 0-.09.045-.134.09l-3.482 10.222c-.09.224-.357.224-.446 0L147.66 5.982c0-.045-.045-.09-.134-.09h-2.143c-.09 0-.134.09-.134.18l4.42 12.857c0 .043.043.088.133.088h3.036c.043 0 .088-.045.133-.09l4.42-12.857c.09-.088.044-.177-.045-.177zM143.24 5.893h-2.188c-.09 0-.134.045-.134.134v12.857c0 .09.045.134.134.134h2.188c.09 0 .133-.045.133-.134V6.027c0-.045-.044-.134-.133-.134zM143.24 1.696h-2.188c-.09 0-.134.045-.134.134v2.188c0 .09.045.134.134.134h2.188c.09 0 .133-.045.133-.134V1.83c0-.09-.044-.134-.133-.134zM138.73 5.893h-2.455a.096.096 0 0 1-.09-.09V.224c0-.09-.044-.134-.134-.134h-2.186c-.09 0-.134.044-.134.133v5.58c0 .045-.045.09-.09.09h-2.41c-.09 0-.134.045-.134.134v2.187c0 .09.044.134.133.134h2.41c.045 0 .09.045.09.09v10.446c0 .09.044.134.134.134h2.187c.09 0 .135-.045.135-.134V8.437c0-.044.045-.09.09-.09h2.455c.09 0 .134-.043.134-.133V6.027c0-.045-.09-.134-.134-.134zM124.4 16.786c-2.68 0-4.78-2.41-4.288-5.18.268-1.517 1.786-3.08 3.304-3.392 1.652-.357 3.215.223 4.197 1.34a.136.136 0 0 0 .18 0l1.56-1.563a.136.136 0 0 0 0-.178c-1.293-1.428-3.213-2.276-5.312-2.187-3.436.18-6.294 2.99-6.472 6.43a6.773 6.773 0 0 0 6.786 7.097c1.964 0 3.75-.848 5-2.188.045-.044.045-.09 0-.134l-1.562-1.562a.136.136 0 0 0-.18 0c-.758.982-1.92 1.518-3.213 1.518zM109.8 16.786a4.252 4.252 0 0 1-3.216-1.43c-.044-.088-.044-.177.045-.222l7.5-3.17 2.187-.937c.09-.045.09-.09.09-.134-.715-3.08-3.527-5.357-6.83-5.223-3.484.134-6.386 2.946-6.52 6.428a6.773 6.773 0 0 0 6.787 7.098c2.812 0 5.223-1.74 6.25-4.196.045-.09 0-.18-.09-.18l-2.187-.4c-.044 0-.134 0-.134.09-.803 1.338-2.277 2.276-3.884 2.276zm0-8.66a4.22 4.22 0 0 1 3.214 1.472c.044.09.044.18-.045.223 0 0-7.234 3.082-7.323 3.126-.09.045-.18-.044-.18-.09V12.5c-.043-2.455 1.92-4.375 4.332-4.375zM101.182.09h-2.188c-.09 0-.134.044-.134.133v18.66c0 .09.045.135.134.135h2.188c.09 0 .134-.045.134-.134V.224c0-.09-.09-.135-.134-.135zM96.405.09h-2.188c-.09 0-.134.044-.134.133v18.66c0 .09.045.135.134.135h2.188c.09 0 .134-.045.134-.134V.224c-.046-.09-.09-.135-.135-.135zM85.69 8.125c2.41 0 4.33 1.964 4.33 4.33s-1.964 4.33-4.33 4.33c-2.367 0-4.33-1.964-4.33-4.33s1.92-4.33 4.33-4.33zm0-2.455a6.783 6.783 0 0 0-6.787 6.785 6.783 6.783 0 0 0 6.787 6.786 6.783 6.783 0 0 0 6.786-6.785A6.783 6.783 0 0 0 85.69 5.67zM73.233 16.786c-2.68 0-4.777-2.41-4.286-5.18.268-1.517 1.786-3.08 3.304-3.392 1.653-.357 3.215.223 4.198 1.34a.136.136 0 0 0 .178 0L78.19 7.99a.136.136 0 0 0 0-.178c-1.296-1.428-3.216-2.276-5.314-2.187-3.438.18-6.295 2.99-6.474 6.43a6.773 6.773 0 0 0 6.786 7.097c1.965 0 3.75-.848 5-2.188.046-.044.046-.09 0-.134l-1.562-1.562a.136.136 0 0 0-.178 0c-.76.982-1.92 1.518-3.215 1.518zM51.044 5.67c-1.43 0-3.08.893-3.84 1.964-.045.09-.223.045-.223-.045V6.026c0-.045-.044-.134-.133-.134H44.66c-.046 0-.135.045-.135.134V18.93c0 .043.045.133.134.133h2.187c.044 0 .134-.045.134-.134V12.5c0-2.455 1.653-4.196 4.02-4.196 3.124 0 4.062 2.053 4.062 4.464v6.16c0 .045.044.134.134.134h2.187c.045 0 .134-.044.134-.133v-6.162c.045-3.75-1.74-7.098-6.473-7.098zM36.623 16.786a4.252 4.252 0 0 1-3.215-1.43c-.045-.088-.045-.177.045-.222l7.5-3.17 2.188-.937c.09-.045.09-.09.09-.134-.714-3.08-3.527-5.357-6.83-5.223-3.483.134-6.385 2.946-6.52 6.428a6.773 6.773 0 0 0 6.787 7.098c2.813 0 5.224-1.74 6.25-4.196.046-.09 0-.18-.088-.18l-2.19-.4c-.044 0-.133 0-.133.09-.804 1.338-2.232 2.276-3.884 2.276zm0-8.66a4.22 4.22 0 0 1 3.214 1.472c.045.09.045.18-.044.223 0 0-7.233 3.082-7.323 3.126-.09.045-.178-.044-.178-.09V12.5c0-2.455 1.964-4.375 4.33-4.375zM21.8 5.536c-1.697.044-3.036.714-3.974 1.83-.09.09-.223.045-.223-.09v-1.25c0-.088-.045-.133-.134-.133h-2.19c-.088 0-.133.045-.133.134v18.705c0 .09.045.134.134.134h2.144c.09 0 .134-.045.134-.134v-7.366c0-.134.134-.178.224-.09.937 1.117 2.32 1.83 4.107 1.83 4.15 0 7.455-3.75 6.652-8.035-.536-3.258-3.483-5.58-6.742-5.534zm.848 11.07c-2.947.492-5.49-2.052-5-5 .312-1.785 1.74-3.258 3.527-3.526 2.947-.49 5.49 2.054 5 5-.268 1.786-1.74 3.215-3.527 3.527zM7.11 5.67a6.783 6.783 0 0 0-6.785 6.785A6.783 6.783 0 0 0 7.11 19.24a6.783 6.783 0 0 0 6.787-6.785A6.783 6.783 0 0 0 7.11 5.67zm0 2.455c2.412 0 4.332 1.964 4.332 4.33s-1.965 4.33-4.33 4.33c-2.367 0-4.332-1.964-4.332-4.33s1.965-4.33 4.33-4.33z"/></g></symbol><symbol viewBox="0 0 12 12" id="svg-star"><title>E8DE4586-5F42-41C1-89FC-4DA35F86795D</title><path d="M6 8.18c.103 0 .206.03.297.087l2.156 1.397-.665-2.356a.545.545 0 0 1 .173-.565l2.12-1.79-2.434-.176a.546.546 0 0 1-.457-.317L6 1.857 4.81 4.46a.546.546 0 0 1-.456.317l-2.434.175 2.12 1.79c.162.14.23.36.172.566l-.665 2.356 2.156-1.397A.545.545 0 0 1 6 8.18m3.37 3.275a.545.545 0 0 1-.296-.088L6 9.375l-3.074 1.992a.546.546 0 0 1-.822-.606l.963-3.41L.193 4.92a.545.545 0 0 1 .313-.96l3.447-.248L5.503.32a.546.546 0 0 1 .993 0l1.55 3.392 3.448.248a.545.545 0 0 1 .313.96L8.933 7.35l.963 3.41a.545.545 0 0 1-.525.695" fill="0" fill-rule="evenodd"/></symbol><symbol viewBox="0 0 21 21" id="svg-star-badge"><title>B0F81F5F-A9B2-4673-84CA-94419A382DB0</title><defs><ellipse id="ya" cx="10" cy="10" rx="10" ry="10"/></defs><g transform="translate(.333 .487)" fill="none" fill-rule="evenodd"><mask id="yb" fill="#fff"><use xlink:href="#ya"/></mask><use fill="#FFF" xlink:href="#ya"/><path d="M9.65 5.164a.237.237 0 0 1 .452 0c.356 1.098 1.03 3.174 1.225 3.77a.237.237 0 0 0 .225.164h3.964a.237.237 0 0 1 .14.428l-3.208 2.33a.237.237 0 0 0-.086.265c.194.597.87 2.673 1.225 3.77a.237.237 0 0 1-.364.266c-.934-.68-2.7-1.962-3.207-2.33a.237.237 0 0 0-.28 0l-3.206 2.33a.237.237 0 0 1-.364-.265l1.225-3.77a.237.237 0 0 0-.085-.264l-3.207-2.33a.237.237 0 0 1 .14-.428H8.2a.237.237 0 0 0 .226-.164c.194-.596.87-2.672 1.225-3.77z" fill="#46B0ED" mask="url(#yb)"/></g></symbol></svg>