<?xml version="1.0" encoding="UTF-8" standalone="no"?>
<svg width="32px" height="34px" viewBox="0 0 32 34" version="1.1" xmlns="http://www.w3.org/2000/svg" xmlns:xlink="http://www.w3.org/1999/xlink">
    <!-- Generator: Sketch 3.6.1 (26313) - http://www.bohemiancoding.com/sketch -->
    <title>:: legal stuff</title>
    <desc>Created with Sketch.</desc>
    <defs></defs>
    <g stroke="none" stroke-width="1" fill-rule="evenodd">
        <g transform="translate(-189.000000, -643.000000)">
            <g transform="translate(189.000000, 643.000000)">
                <path d="M4.993,7.916 C4.756,7.893 4.525,7.832 4.308,7.726 C4.098,7.623 3.907,7.484 3.746,7.316 C3.604,7.167 3.485,6.997 3.395,6.813 C3.316,6.651 3.259,6.477 3.226,6.3 C3.113,5.682 3.306,5.033 3.737,4.577 C3.9,4.405 4.093,4.263 4.306,4.159 C4.388,4.119 4.473,4.087 4.559,4.056 C8.261,2.934 12.011,1.982 15.737,0.945 C15.816,0.927 15.835,0.92 15.916,0.913 C15.946,0.91 15.976,0.91 16.006,0.909 C16.037,0.91 16.067,0.912 16.097,0.913 C16.187,0.925 16.187,0.925 16.276,0.946 L27.225,4.025 C27.513,4.113 27.778,4.253 28.005,4.454 C28.18,4.61 28.328,4.798 28.439,5.005 C28.537,5.188 28.606,5.386 28.644,5.59 C28.677,5.77 28.685,5.954 28.668,6.136 C28.613,6.737 28.281,7.292 27.777,7.626 C27.553,7.774 27.299,7.876 27.035,7.925 L27.031,7.926 C27.059,9.825 27.007,11.725 27.001,13.624 C28.188,14.699 29.31,15.843 30.449,16.969 C30.594,16.97 30.74,16.97 30.885,16.971 L30.943,16.973 C31.061,16.984 31.174,17.009 31.282,17.056 C31.534,17.167 31.732,17.382 31.822,17.641 C31.855,17.734 31.87,17.829 31.877,17.927 C31.879,18.015 31.878,18.014 31.877,18.102 C31.87,18.275 31.858,18.446 31.834,18.618 C31.776,19.036 31.661,19.445 31.494,19.832 C31.297,20.289 31.029,20.713 30.705,21.09 C30.38,21.468 30.001,21.797 29.584,22.069 C29.085,22.393 28.533,22.635 27.957,22.785 C26.846,23.074 25.649,23.022 24.569,22.632 C24.132,22.474 23.715,22.262 23.332,21.999 C22.99,21.765 22.675,21.491 22.397,21.183 C22.037,20.783 21.74,20.327 21.527,19.832 C21.36,19.445 21.244,19.036 21.186,18.618 C21.157,18.408 21.145,18.197 21.142,17.985 L21.143,17.926 C21.152,17.808 21.174,17.694 21.22,17.584 C21.326,17.33 21.538,17.127 21.797,17.032 C21.89,16.998 21.985,16.982 22.084,16.973 C22.228,16.969 22.373,16.969 22.518,16.97 C23.65,15.837 24.836,14.757 25.989,13.644 C25.932,11.755 25.975,9.863 25.993,7.972 C22.997,8.028 20.001,8.029 17.005,8.011 L17.005,28.949 C17.004,28.966 17.004,28.983 17.003,29.001 C20.106,29.004 23.208,29.024 26.311,29.06 C26.68,29.073 27.041,29.157 27.372,29.32 C27.573,29.418 27.76,29.544 27.927,29.692 C28.478,30.18 28.783,30.899 28.746,31.625 C28.734,31.864 28.685,32.102 28.602,32.328 C28.499,32.61 28.343,32.872 28.143,33.099 C27.929,33.342 27.665,33.543 27.372,33.688 C27.041,33.85 26.68,33.934 26.311,33.947 C19.423,34.027 12.533,34.027 5.645,33.947 C5.276,33.934 4.915,33.85 4.584,33.688 C4.291,33.543 4.027,33.342 3.813,33.099 C3.613,32.872 3.457,32.61 3.354,32.328 C3.271,32.102 3.222,31.864 3.21,31.625 C3.173,30.899 3.478,30.18 4.029,29.692 C4.196,29.544 4.383,29.418 4.584,29.32 C4.915,29.157 5.276,29.073 5.645,29.06 C8.766,29.024 11.886,29.004 15.007,29.001 C15.007,28.986 15.006,28.969 15.005,28.949 L15.005,7.997 C12.014,7.973 9.023,7.938 6.032,7.929 C6.058,9.786 6.007,11.644 6.001,13.502 C7.228,14.616 8.386,15.804 9.565,16.97 C9.668,16.97 9.772,16.971 9.875,16.971 L9.933,16.973 C10.031,16.983 10.126,17 10.218,17.034 C10.475,17.13 10.685,17.333 10.791,17.586 C10.837,17.696 10.859,17.809 10.867,17.927 C10.869,18.015 10.868,18.014 10.867,18.102 C10.859,18.275 10.848,18.446 10.824,18.618 C10.766,19.036 10.65,19.445 10.483,19.832 C10.287,20.289 10.018,20.713 9.695,21.09 C9.37,21.468 8.991,21.797 8.574,22.069 C8.075,22.393 7.523,22.635 6.947,22.785 C5.836,23.074 4.639,23.022 3.559,22.632 C3.122,22.474 2.705,22.262 2.322,21.999 C1.98,21.765 1.665,21.491 1.387,21.183 C1.027,20.784 0.73,20.327 0.517,19.832 C0.35,19.445 0.234,19.036 0.176,18.618 C0.147,18.408 0.135,18.197 0.132,17.985 L0.133,17.926 C0.14,17.828 0.156,17.733 0.188,17.639 C0.28,17.379 0.48,17.164 0.733,17.054 C0.842,17.007 0.955,16.983 1.073,16.973 C1.184,16.97 1.294,16.969 1.405,16.97 C2.571,15.792 3.797,14.674 4.989,13.522 C4.933,11.655 4.976,9.785 4.993,7.916 L4.993,7.916 Z M5.713,31.015 C5.637,31.016 5.563,31.03 5.494,31.062 C5.434,31.089 5.381,31.128 5.337,31.176 C5.296,31.22 5.263,31.272 5.241,31.328 C5.149,31.559 5.256,31.829 5.483,31.94 C5.549,31.973 5.621,31.99 5.695,31.992 C12.606,32.057 19.412,32.063 26.299,31.99 C26.368,31.982 26.434,31.962 26.495,31.929 C26.549,31.899 26.597,31.86 26.636,31.813 C26.672,31.77 26.7,31.721 26.719,31.668 C26.799,31.451 26.708,31.203 26.505,31.084 C26.442,31.047 26.371,31.025 26.298,31.017 C19.389,31.032 12.575,31.015 5.713,31.015 L5.713,31.015 Z M26.669,18.969 C25.557,18.97 24.446,18.971 23.335,18.971 C23.352,19.017 23.373,19.062 23.393,19.107 C23.521,19.375 23.683,19.622 23.882,19.843 C24.037,20.015 24.211,20.169 24.398,20.304 C25.627,21.188 27.393,21.188 28.622,20.304 C28.83,20.154 29.021,19.981 29.188,19.787 C29.397,19.543 29.562,19.27 29.685,18.973 L29.686,18.969 C28.681,18.968 27.675,18.969 26.669,18.969 L26.669,18.969 Z M5.659,18.969 C4.547,18.97 3.436,18.971 2.325,18.971 C2.342,19.017 2.363,19.062 2.383,19.107 C2.511,19.375 2.673,19.622 2.872,19.843 C3.027,20.015 3.2,20.169 3.388,20.304 C4.617,21.188 6.383,21.188 7.612,20.304 C7.82,20.154 8.011,19.981 8.177,19.787 C8.387,19.543 8.551,19.27 8.675,18.973 L8.676,18.969 C7.67,18.968 6.665,18.969 5.659,18.969 L5.659,18.969 Z M2.876,16.971 C4.624,16.97 6.373,16.968 8.122,16.969 L5.5,14.421 L2.876,16.971 L2.876,16.971 Z M23.995,16.971 C25.664,16.97 27.333,16.969 29.002,16.969 L26.5,14.542 L23.995,16.971 L23.995,16.971 Z M5.29,5.927 C12.413,5.937 19.536,5.948 26.659,5.958 C26.661,5.958 26.675,5.96 26.676,5.954 C26.676,5.952 26.676,5.949 26.674,5.948 C26.67,5.946 26.666,5.945 26.661,5.944 L16.004,2.947 C12.432,3.94 8.861,4.934 5.29,5.927 L5.29,5.927 Z"></path>
            </g>
        </g>
    </g>
</svg>