<?xml version="1.0" encoding="UTF-8" standalone="no"?>
<svg width="35px" height="36px" viewBox="0 0 35 36" version="1.1" xmlns="http://www.w3.org/2000/svg" xmlns:xlink="http://www.w3.org/1999/xlink">
    <!-- Generator: Sketch 3.6.1 (26313) - http://www.bohemiancoding.com/sketch -->
    <title>Shape</title>
    <desc>Created with Sketch.</desc>
    <defs></defs>
    <g stroke="none" stroke-width="1" fill-rule="evenodd">
        <g transform="translate(-339.000000, -490.000000)">
            <g transform="translate(339.000000, 490.000000)">
                <path d="M20.22,15.611 C20.473,14.824 20.896,14.093 21.453,13.482 C21.577,13.346 21.707,13.216 21.844,13.092 C21.968,12.98 22.099,12.876 22.223,12.765 C22.291,12.702 22.358,12.638 22.423,12.572 C22.906,12.068 23.273,11.462 23.485,10.796 C23.574,10.514 23.633,10.224 23.667,9.931 C23.958,7.122 24.216,4.311 24.49,1.501 C24.508,1.351 24.541,1.205 24.598,1.064 C24.764,0.647 25.103,0.31 25.521,0.145 C25.69,0.079 25.864,0.046 26.043,0.033 C26.996,0.011 27.948,0.011 28.901,0.033 C29.08,0.046 29.254,0.079 29.423,0.145 C29.817,0.3 30.142,0.609 30.317,0.995 C30.381,1.136 30.42,1.283 30.446,1.435 C30.819,4.505 31.011,7.594 31.349,10.667 C31.373,10.845 31.41,11.021 31.467,11.192 C31.629,11.682 31.928,12.111 32.322,12.443 L32.32,12.442 C32.401,12.51 32.482,12.579 32.561,12.649 C32.637,12.717 32.711,12.787 32.785,12.858 C33.169,13.237 33.514,13.651 33.809,14.103 C34.34,14.916 34.706,15.835 34.881,16.79 C34.954,17.191 34.991,17.596 34.999,18.004 C35.035,23.25 35.065,28.498 34.999,33.744 C34.99,34.006 34.942,34.264 34.847,34.509 C34.603,35.14 34.078,35.64 33.436,35.853 C33.206,35.929 32.968,35.965 32.726,35.968 L22.871,35.968 C22.768,35.962 22.741,35.965 22.64,35.941 C22.451,35.896 22.277,35.796 22.143,35.654 C21.995,35.497 21.905,35.296 21.88,35.087 C21.512,35.346 21.11,35.556 20.686,35.707 C20.34,35.831 19.981,35.917 19.616,35.962 C19.453,35.982 19.289,35.992 19.124,35.999 C14.748,36.052 10.371,36 5.994,36 C5.831,35.998 5.668,35.992 5.506,35.976 C5.14,35.939 4.778,35.862 4.429,35.747 C3.731,35.516 3.086,35.13 2.553,34.622 C2.019,34.114 1.601,33.488 1.335,32.8 C1.188,32.42 1.088,32.021 1.038,31.617 C1.018,31.453 1.008,31.289 1.001,31.124 L0.988,30.012 L1,30 L24,30 C24.004,30.004 24.008,30.008 24.012,30.013 L23.999,31.124 C23.994,31.248 23.994,31.248 23.986,31.371 C23.972,31.535 23.954,31.698 23.926,31.86 C23.856,32.261 23.736,32.653 23.571,33.026 C23.424,33.359 23.24,33.675 23.023,33.968 L32.713,33.968 C32.729,33.968 32.744,33.967 32.76,33.965 C32.895,33.943 32.995,33.831 33,33.695 C33.065,28.449 33.108,23.202 32.998,17.957 C32.987,17.637 32.951,17.319 32.885,17.006 C32.719,16.219 32.373,15.473 31.88,14.839 C31.714,14.626 31.532,14.425 31.336,14.239 C31.217,14.127 31.092,14.023 30.967,13.917 C30.879,13.839 30.879,13.839 30.793,13.759 C30.571,13.542 30.367,13.31 30.188,13.055 C29.856,12.581 29.611,12.046 29.47,11.485 C29.414,11.259 29.377,11.031 29.352,10.8 L28.496,2.032 L26.448,2.032 C26.181,4.765 25.964,7.503 25.646,10.23 C25.598,10.6 25.523,10.966 25.415,11.324 C25.161,12.16 24.738,12.942 24.177,13.611 C23.989,13.835 23.786,14.047 23.569,14.244 C23.444,14.358 23.313,14.463 23.187,14.574 C23.12,14.636 23.121,14.636 23.056,14.699 C22.93,14.828 22.811,14.961 22.703,15.105 C22.453,15.438 22.258,15.812 22.13,16.207 C22.055,16.438 22.006,16.674 21.973,16.914 C22.523,17.506 22.955,18.209 23.229,18.976 C23.454,19.602 23.567,20.259 23.58,20.923 L23.58,20.995 L23.58,22 L0.861,22 C0.861,21.618 0.856,21.232 0.863,20.849 C0.866,20.75 0.871,20.651 0.877,20.553 C0.925,19.966 1.051,19.389 1.263,18.839 C1.742,17.596 2.637,16.534 3.779,15.851 C4.156,15.625 4.558,15.441 4.975,15.304 C5.56,15.11 6.169,15.012 6.784,15 C10.408,14.978 14.033,14.978 17.657,15 C18.273,15.012 18.881,15.11 19.466,15.304 C19.724,15.389 19.976,15.492 20.22,15.611 L20.22,15.611 Z M21.828,32 L3.172,32 C3.454,32.82 4.114,33.488 4.92,33.799 C5.242,33.923 5.581,33.986 5.925,33.999 C10.308,34.053 14.692,34.053 19.075,33.999 C19.321,33.99 19.564,33.957 19.802,33.891 C20.443,33.713 21.015,33.319 21.411,32.785 C21.572,32.568 21.698,32.331 21.799,32.08 L21.824,32.012 L21.828,32 L21.828,32 Z M31.581,16.884 C31.635,16.896 31.685,16.91 31.734,16.936 C31.846,16.996 31.933,17.098 31.974,17.218 C31.992,17.271 31.997,17.323 32,17.378 L32,32.682 C31.997,32.73 31.999,32.743 31.988,32.79 C31.969,32.878 31.925,32.961 31.863,33.026 C31.683,33.217 31.376,33.233 31.176,33.064 C31.135,33.028 31.1,32.987 31.072,32.94 C31.023,32.86 31.005,32.775 31,32.682 L31,17.378 C31.003,17.323 31.008,17.271 31.026,17.218 C31.073,17.08 31.18,16.967 31.315,16.913 C31.367,16.893 31.418,16.884 31.473,16.879 C31.527,16.879 31.527,16.879 31.581,16.884 L31.581,16.884 Z M17,23.882 L18.764,23 C19.76,23 20.756,22.982 21.752,23.001 C21.915,23.01 22.074,23.034 22.23,23.082 C22.89,23.281 23.384,23.817 23.667,24.428 C23.986,25.115 24.07,25.909 23.947,26.652 C23.891,26.99 23.79,27.321 23.64,27.629 C23.353,28.217 22.868,28.725 22.23,28.918 C22.074,28.966 21.915,28.99 21.752,28.999 C15.605,29.116 9.457,29 3.309,29 C3.148,28.997 2.991,28.978 2.836,28.937 C2.748,28.914 2.662,28.884 2.578,28.849 C2.031,28.619 1.617,28.155 1.36,27.629 C1.2,27.302 1.097,26.948 1.043,26.588 C0.935,25.863 1.023,25.095 1.333,24.428 C1.578,23.898 1.979,23.426 2.516,23.178 C2.619,23.131 2.726,23.092 2.836,23.063 C2.991,23.022 3.148,23.003 3.309,23 L15.236,23 C15.824,23.294 16.412,23.588 17,23.882 L17,23.882 Z M14.764,25 L3.344,25 C3.293,25.033 3.254,25.086 3.221,25.136 C3.154,25.238 3.107,25.353 3.073,25.47 C2.968,25.827 2.972,26.23 3.09,26.584 C3.122,26.682 3.164,26.778 3.221,26.864 C3.252,26.911 3.288,26.956 3.332,26.991 L3.342,26.999 C6.197,26.977 9.098,26.974 12.345,27 C15.696,27.026 18.841,27.012 21.658,26.999 C21.681,26.983 21.7,26.963 21.719,26.943 C21.827,26.818 21.892,26.66 21.935,26.503 C22.024,26.178 22.024,25.822 21.935,25.497 C21.902,25.377 21.856,25.258 21.79,25.152 C21.756,25.099 21.717,25.047 21.668,25.009 C21.663,25.005 21.663,25.005 21.658,25.002 L21.656,25 L19.236,25 L17,26.118 L14.764,25 L14.764,25 Z M6.862,17 C6.466,17.002 6.075,17.058 5.696,17.173 C4.72,17.47 3.881,18.142 3.379,19.03 C3.206,19.335 3.077,19.661 2.988,20 L21.454,20 C21.364,19.661 21.235,19.335 21.062,19.03 C20.56,18.142 19.722,17.47 18.745,17.173 C18.383,17.063 18.01,17.007 17.632,17 C14.042,16.978 10.452,17 6.862,17 L6.862,17 Z"></path>
            </g>
        </g>
    </g>
</svg>