<?xml version="1.0" encoding="UTF-8"?>
<svg width="48px" height="48px" viewBox="0 0 48 48" version="1.1" xmlns="http://www.w3.org/2000/svg" xmlns:xlink="http://www.w3.org/1999/xlink">
    <!-- Generator: sketchtool 42 (36781) - http://www.bohemiancoding.com/sketch -->
    <title>CE44133E-F9EA-4195-B70E-E7008B6AC391</title>
    <desc>Created with sketchtool.</desc>
    <defs></defs>
    <g id="Page-1" stroke="none" stroke-width="1" fill="none" fill-rule="evenodd">
        <g id="email-template---monthly-digest---320" transform="translate(-457.000000, -75.000000)" fill-rule="nonzero">
            <g id="::-logotype-(oc)" transform="translate(373.000000, 75.000000)">
                <g id="::-symbol-(oc)" transform="translate(84.000000, 0.000000)">
                    <path d="M38.956069,24.1635517 C38.956069,27.124812 38.0501139,29.9573219 36.497048,32.4035804 L42.7093115,38.5836019 C45.6860211,34.592338 47.4979313,29.699821 47.4979313,24.2923022 C47.4979313,18.8847834 45.6860211,13.9922664 42.5798894,10.0010025 L36.497048,16.0522735 C38.0501139,18.3697816 38.956069,21.2022914 38.956069,24.1635517 Z" id="o" fill="#B8D3F4"></path>
                    <path d="M23.6842546,39.3561045 C15.2718144,39.3561045 8.41244015,32.5323308 8.41244015,24.1635517 C8.41244015,15.7947726 15.2718144,8.97099893 23.6842546,8.97099893 C26.7903863,8.97099893 29.6376737,9.87225206 31.9672726,11.4172574 L38.0501139,5.36598639 C34.0380271,2.4047261 29.1199851,0.602219835 23.6842546,0.602219835 C10.6126168,0.602219835 0,11.1597565 0,24.1635517 C0,37.1673469 10.6126168,47.7248836 23.6842546,47.7248836 C29.1199851,47.7248836 34.0380271,45.9223774 38.0501139,42.8323666 L31.8378504,36.6523451 C29.6376737,38.4548514 26.7903863,39.3561045 23.6842546,39.3561045 Z" id="c" fill="#7FADF2"></path>
                </g>
            </g>
        </g>
    </g>
</svg>