<?xml version="1.0" standalone="no"?><!DOCTYPE svg PUBLIC "-//W3C//DTD SVG 1.1//EN" "http://www.w3.org/Graphics/SVG/1.1/DTD/svg11.dtd"><svg width="100%" height="100%" viewBox="0 0 81 81" version="1.1" xmlns="http://www.w3.org/2000/svg" xmlns:xlink="http://www.w3.org/1999/xlink" xml:space="preserve" style="fill-rule:evenodd;clip-rule:evenodd;stroke-linecap:round;stroke-linejoin:round;stroke-miterlimit:1.41421;"><path d="M10.941,65.082c-1.362,-1.62 -2.594,-3.354 -3.678,-5.185c-3.396,-5.737 -5.346,-12.428 -5.346,-19.572c0,-21.249 17.251,-38.5 38.5,-38.5c21.249,0 38.5,17.251 38.5,38.5c0,21.249 -17.251,38.5 -38.5,38.5c-4.546,0 -8.909,-0.789 -12.959,-2.239c-1.041,-0.372 -2.06,-0.788 -3.057,-1.245" style="fill:#fafafa;"/><path d="M53.077,35.702c0,-3.864 3.137,-7 7,-7c3.863,0 7,3.136 7,7" style="fill:none;stroke-width:2px;stroke:#e6e6e6;"/><path d="M16.813,35.702c0,-3.864 3.137,-7 7,-7c3.863,0 7,3.136 7,7" style="fill:none;stroke-width:2px;stroke:#e6e6e6;"/><path d="M46.747,52.958c0,0.083 -2.716,0.151 -6.062,0.151c-3.346,0 -6.063,-0.068 -6.063,-0.151" style="fill:none;stroke-width:2px;stroke:#e6e6e6;"/><path d="M10.756,64.989c-1.362,-1.62 -2.594,-3.354 -3.678,-5.185c-3.396,-5.737 -5.346,-12.428 -5.346,-19.572c0,-21.249 17.251,-38.5 38.5,-38.5c21.249,0 38.5,17.251 38.5,38.5c0,21.249 -17.251,38.5 -38.5,38.5c-4.546,0 -8.909,-0.789 -12.959,-2.239c-1.041,-0.372 -2.06,-0.788 -3.057,-1.245" style="fill:none;stroke-width:2px;stroke-linejoin:miter;stroke:#e6e6e6;"/><path d="M18.624,72.093c-1.07,-0.727 -2.101,-1.507 -3.091,-2.336" style="fill:none;stroke-width:2px;stroke-linejoin:miter;stroke:#e6e6e6;"/></svg>