<?xml version="1.0" standalone="no"?><!DOCTYPE svg PUBLIC "-//W3C//DTD SVG 1.1//EN" "http://www.w3.org/Graphics/SVG/1.1/DTD/svg11.dtd"><svg width="100%" height="100%" viewBox="0 0 81 81" version="1.1" xmlns="http://www.w3.org/2000/svg" xmlns:xlink="http://www.w3.org/1999/xlink" xml:space="preserve" style="fill-rule:evenodd;clip-rule:evenodd;stroke-linecap:round;stroke-miterlimit:1.41421;"><g><g id=":)"><path d="M10.737,64.809c-1.362,-1.62 -2.594,-3.354 -3.678,-5.185c-3.396,-5.737 -5.346,-12.428 -5.346,-19.572c0,-21.249 17.251,-38.5 38.5,-38.5c21.249,0 38.5,17.251 38.5,38.5c0,21.249 -17.251,38.5 -38.5,38.5c-4.546,0 -8.909,-0.789 -12.959,-2.239c-1.041,-0.372 -2.06,-0.788 -3.057,-1.245" style="fill:#fafafa;"/><path d="M55.473,26.831c3.035,0 5.5,2.465 5.5,5.5c0,3.036 -2.465,3.5 -5.5,3.5c-3.036,0 -5.5,-0.464 -5.5,-3.5c0,-3.035 2.464,-5.5 5.5,-5.5l0,0Z" style="fill:#fff;stroke-width:2px;stroke:#e6e6e6;"/><path d="M22.759,26.831l8.5,5.5l-8.5,5.5" style="fill:none;stroke-width:2px;stroke-linejoin:round;stroke:#e6e6e6;"/><path d="M10.756,64.989c-1.362,-1.62 -2.594,-3.354 -3.678,-5.185c-3.396,-5.737 -5.346,-12.428 -5.346,-19.572c0,-21.249 17.251,-38.5 38.5,-38.5c21.249,0 38.5,17.251 38.5,38.5c0,21.249 -17.251,38.5 -38.5,38.5c-4.546,0 -8.909,-0.789 -12.959,-2.239c-1.041,-0.372 -2.06,-0.788 -3.057,-1.245" style="fill:none;stroke-width:2px;stroke:#e6e6e6;"/><path d="M18.624,72.093c-1.07,-0.727 -2.101,-1.507 -3.091,-2.336" style="fill:none;stroke-width:2px;stroke:#e6e6e6;"/></g><g id=":)1"><path d="M55.473,26.831c3.035,0 5.5,2.465 5.5,5.5c0,3.036 -2.465,3.5 -5.5,3.5c-3.036,0 -5.5,-0.464 -5.5,-3.5c0,-3.035 2.464,-5.5 5.5,-5.5l0,0Z" style="fill:#fff;stroke-width:2px;stroke:#e6e6e6;"/><path d="M22.759,26.831l8.5,5.5l-8.5,5.5" style="fill:none;stroke-width:2px;stroke-linejoin:round;stroke:#e6e6e6;"/><path d="M10.756,64.989c-1.362,-1.62 -2.594,-3.354 -3.678,-5.185c-3.396,-5.737 -5.346,-12.428 -5.346,-19.572c0,-21.249 17.251,-38.5 38.5,-38.5c21.249,0 38.5,17.251 38.5,38.5c0,21.249 -17.251,38.5 -38.5,38.5c-4.546,0 -8.909,-0.789 -12.959,-2.239c-1.041,-0.372 -2.06,-0.788 -3.057,-1.245" style="fill:none;stroke-width:2px;stroke:#e6e6e6;"/><path d="M18.624,72.093c-1.07,-0.727 -2.101,-1.507 -3.091,-2.336" style="fill:none;stroke-width:2px;stroke:#e6e6e6;"/></g><path d="M53.801,52.655l-26.065,0" style="fill:none;stroke-width:2px;stroke-linejoin:round;stroke:#e6e6e6;"/><g><path d="M37.993,52.655l-7.103,0c0,0 0,3.35 0,6.103c0,0.942 0.374,1.844 1.04,2.51c0.666,0.666 1.569,1.04 2.51,1.04c0.001,0 0.002,0 0.003,0c0.941,0 1.844,-0.374 2.51,-1.04c0.666,-0.666 1.04,-1.568 1.04,-2.51c0,-2.753 0,-6.103 0,-6.103l0,0Z" style="fill:#fff;stroke-width:2px;stroke-linejoin:round;stroke:#e6e6e6;"/></g></g></svg>