<?xml version="1.0" standalone="no"?><!DOCTYPE svg PUBLIC "-//W3C//DTD SVG 1.1//EN" "http://www.w3.org/Graphics/SVG/1.1/DTD/svg11.dtd"><svg width="100%" height="100%" viewBox="0 0 81 81" version="1.1" xmlns="http://www.w3.org/2000/svg" xmlns:xlink="http://www.w3.org/1999/xlink" xml:space="preserve" style="fill-rule:evenodd;clip-rule:evenodd;stroke-linecap:round;stroke-linejoin:round;stroke-miterlimit:1.41421;"><path d="M10.941,65.15c-1.362,-1.62 -2.594,-3.354 -3.678,-5.185c-3.396,-5.737 -5.346,-12.428 -5.346,-19.572c0,-21.249 17.251,-38.5 38.5,-38.5c21.249,0 38.5,17.251 38.5,38.5c0,21.249 -17.251,38.5 -38.5,38.5c-4.546,0 -8.909,-0.789 -12.959,-2.239c-1.041,-0.372 -2.06,-0.788 -3.057,-1.245" style="fill:#fafafa;"/><path d="M10.941,65.15c-1.362,-1.62 -2.594,-3.354 -3.678,-5.185c-3.396,-5.737 -5.346,-12.428 -5.346,-19.572c0,-21.249 17.251,-38.5 38.5,-38.5c21.249,0 38.5,17.251 38.5,38.5c0,21.249 -17.251,38.5 -38.5,38.5c-4.546,0 -8.909,-0.789 -12.959,-2.239c-1.041,-0.372 -2.06,-0.788 -3.057,-1.245" style="fill:#fafafa;"/><path d="M15.927,39.085c-0.933,0.313 -1.945,-0.183 -2.269,-1.112c-0.221,-0.718 -0.353,-1.479 -0.353,-2.271c0,-3.864 3.136,-7 7,-7c3.863,0 7,3.136 7,7c0,0.932 -0.183,1.822 -0.515,2.636c-0.304,0.719 -1.116,1.075 -1.85,0.812c-1.4,-0.454 -2.972,-0.719 -4.635,-0.719c-1.564,0 -3.048,0.234 -4.378,0.654l0,0Z" style="fill:#fff;stroke-width:2px;stroke:#e6e6e6;"/><path d="M56.024,38.987c-0.573,0.175 -1.193,0.107 -1.715,-0.188c-0.521,-0.296 -0.898,-0.793 -1.042,-1.374c-0.116,-0.555 -0.19,-1.131 -0.19,-1.723c0,-3.864 3.137,-7 7,-7c3.863,0 7,3.136 7,7c0,0.664 -0.093,1.307 -0.266,1.916c-0.15,0.527 -0.506,0.971 -0.989,1.23c-0.482,0.26 -1.048,0.314 -1.571,0.149c-1.283,-0.356 -2.692,-0.566 -4.174,-0.566c-1.438,0 -2.808,0.198 -4.053,0.556l0,0Z" style="fill:#fff;stroke-width:2px;stroke:#e6e6e6;"/><path d="M46.747,49.326c0,2.001 -2.716,3.625 -6.062,3.625c-3.346,0 -6.063,-1.624 -6.063,-3.625" style="fill:none;stroke-width:2px;stroke:#e6e6e6;"/><path d="M10.756,64.989c-1.362,-1.62 -2.594,-3.354 -3.678,-5.185c-3.396,-5.737 -5.346,-12.428 -5.346,-19.572c0,-21.249 17.251,-38.5 38.5,-38.5c21.249,0 38.5,17.251 38.5,38.5c0,21.249 -17.251,38.5 -38.5,38.5c-4.546,0 -8.909,-0.789 -12.959,-2.239c-1.041,-0.372 -2.06,-0.788 -3.057,-1.245" style="fill:none;stroke-width:2px;stroke-linejoin:miter;stroke:#e6e6e6;"/><path d="M18.624,72.093c-1.07,-0.727 -2.101,-1.507 -3.091,-2.336" style="fill:none;stroke-width:2px;stroke-linejoin:miter;stroke:#e6e6e6;"/></svg>